G04 #@! TF.GenerationSoftware,KiCad,Pcbnew,(5.1.0)-1*
G04 #@! TF.CreationDate,2019-03-29T02:28:53-07:00*
G04 #@! TF.ProjectId,e73-breakout,6537332d-6272-4656-916b-6f75742e6b69,rev?*
G04 #@! TF.SameCoordinates,Original*
G04 #@! TF.FileFunction,Legend,Top*
G04 #@! TF.FilePolarity,Positive*
%FSLAX46Y46*%
G04 Gerber Fmt 4.6, Leading zero omitted, Abs format (unit mm)*
G04 Created by KiCad (PCBNEW (5.1.0)-1) date 2019-03-29 02:28:53*
%MOMM*%
%LPD*%
G04 APERTURE LIST*
%ADD10C,0.120000*%
%ADD11C,0.150000*%
%ADD12C,0.100000*%
G04 APERTURE END LIST*
D10*
X87935000Y-92126000D02*
X88570000Y-92126000D01*
X87554000Y-91745000D02*
X87935000Y-92126000D01*
X111938000Y-118034001D02*
G75*
G02X112445999Y-118542000I-508000J-1015998D01*
G01*
X111938000Y-115494002D02*
G75*
G02X112445999Y-116002001I-508000J-1015998D01*
G01*
D11*
X110330414Y-117175963D02*
X110380921Y-117226471D01*
X110397757Y-117310650D01*
X110389339Y-117369576D01*
X110347249Y-117462173D01*
X110237816Y-117622114D01*
X110069457Y-117790473D01*
X109909517Y-117899906D01*
X109816919Y-117941996D01*
X109757994Y-117950414D01*
X109673814Y-117933578D01*
X109623307Y-117883070D01*
X109606471Y-117798891D01*
X109614889Y-117739965D01*
X109656978Y-117647368D01*
X109766412Y-117487427D01*
X109934770Y-117319068D01*
X110094711Y-117209635D01*
X110187309Y-117167545D01*
X110246234Y-117159127D01*
X110330414Y-117175963D01*
X110052622Y-118312385D02*
X110153637Y-118413400D01*
X110237816Y-118430236D01*
X110296742Y-118421818D01*
X110448265Y-118371310D01*
X110608205Y-118261877D01*
X110877579Y-117992503D01*
X110919669Y-117899906D01*
X110928087Y-117840980D01*
X110911251Y-117756801D01*
X110810236Y-117655786D01*
X110726057Y-117638950D01*
X110667131Y-117647368D01*
X110574534Y-117689457D01*
X110406175Y-117857816D01*
X110364085Y-117950414D01*
X110355667Y-118009339D01*
X110372503Y-118093518D01*
X110473518Y-118194534D01*
X110557698Y-118211370D01*
X110616623Y-118202952D01*
X110709221Y-118160862D01*
X109800083Y-115519847D02*
X109497038Y-115216801D01*
X109648561Y-115368324D02*
X110355667Y-114661217D01*
X110204144Y-114711725D01*
X110086293Y-114728561D01*
X110002114Y-114711725D01*
X110835490Y-115141039D02*
X110885997Y-115191547D01*
X110902833Y-115275727D01*
X110894415Y-115334652D01*
X110852326Y-115427249D01*
X110742892Y-115587190D01*
X110574534Y-115755549D01*
X110414593Y-115864982D01*
X110321996Y-115907072D01*
X110263070Y-115915490D01*
X110178891Y-115898654D01*
X110128383Y-115848146D01*
X110111547Y-115763967D01*
X110119965Y-115705041D01*
X110162055Y-115612444D01*
X110271488Y-115452503D01*
X110439847Y-115284144D01*
X110599788Y-115174711D01*
X110692385Y-115132622D01*
X110751310Y-115124204D01*
X110835490Y-115141039D01*
X109800083Y-112979847D02*
X109497038Y-112676801D01*
X109648561Y-112828324D02*
X110355667Y-112121217D01*
X110204144Y-112171725D01*
X110086293Y-112188561D01*
X110002114Y-112171725D01*
X110641877Y-112542114D02*
X110700803Y-112533696D01*
X110784982Y-112550532D01*
X110911251Y-112676801D01*
X110928087Y-112760980D01*
X110919669Y-112819906D01*
X110877579Y-112912503D01*
X110810236Y-112979847D01*
X110683967Y-113055608D01*
X109976860Y-113156623D01*
X110305160Y-113484923D01*
X109800083Y-110439847D02*
X109497038Y-110136801D01*
X109648561Y-110288324D02*
X110355667Y-109581217D01*
X110204144Y-109631725D01*
X110086293Y-109648561D01*
X110002114Y-109631725D01*
X110683967Y-109909517D02*
X111012266Y-110237816D01*
X110566116Y-110330414D01*
X110641877Y-110406175D01*
X110658713Y-110490354D01*
X110650295Y-110549280D01*
X110608205Y-110641877D01*
X110439847Y-110810236D01*
X110347249Y-110852326D01*
X110288324Y-110860744D01*
X110204144Y-110843908D01*
X110052622Y-110692385D01*
X110035786Y-110608205D01*
X110044204Y-110549280D01*
X109800083Y-107899847D02*
X109497038Y-107596801D01*
X109648561Y-107748324D02*
X110355667Y-107041217D01*
X110204144Y-107091725D01*
X110086293Y-107108561D01*
X110002114Y-107091725D01*
X110726057Y-107883011D02*
X110254652Y-108354415D01*
X110869162Y-107487368D02*
X110237816Y-107866175D01*
X110566116Y-108194475D01*
X109800083Y-105359847D02*
X109497038Y-105056801D01*
X109648561Y-105208324D02*
X110355667Y-104501217D01*
X110204144Y-104551725D01*
X110086293Y-104568561D01*
X110002114Y-104551725D01*
X110987013Y-105132562D02*
X110734475Y-104880024D01*
X110372503Y-105191488D01*
X110431429Y-105183070D01*
X110515608Y-105199906D01*
X110641877Y-105326175D01*
X110658713Y-105410354D01*
X110650295Y-105469280D01*
X110608205Y-105561877D01*
X110439847Y-105730236D01*
X110347249Y-105772326D01*
X110288324Y-105780744D01*
X110204144Y-105763908D01*
X110077875Y-105637639D01*
X110061039Y-105553459D01*
X110069457Y-105494534D01*
X109800083Y-102819847D02*
X109497038Y-102516801D01*
X109648561Y-102668324D02*
X110355667Y-101961217D01*
X110204144Y-102011725D01*
X110086293Y-102028561D01*
X110002114Y-102011725D01*
X110961759Y-102567309D02*
X110860744Y-102466293D01*
X110776564Y-102449457D01*
X110717639Y-102457875D01*
X110566116Y-102508383D01*
X110406175Y-102617816D01*
X110136801Y-102887190D01*
X110094711Y-102979788D01*
X110086293Y-103038713D01*
X110103129Y-103122892D01*
X110204144Y-103223908D01*
X110288324Y-103240744D01*
X110347249Y-103232326D01*
X110439847Y-103190236D01*
X110608205Y-103021877D01*
X110650295Y-102929280D01*
X110658713Y-102870354D01*
X110641877Y-102786175D01*
X110540862Y-102685160D01*
X110456683Y-102668324D01*
X110397757Y-102676742D01*
X110305160Y-102718831D01*
X109800083Y-100279847D02*
X109497038Y-99976801D01*
X109648561Y-100128324D02*
X110355667Y-99421217D01*
X110204144Y-99471725D01*
X110086293Y-99488561D01*
X110002114Y-99471725D01*
X110683967Y-99749517D02*
X111037520Y-100103070D01*
X110103129Y-100582892D01*
X109800083Y-97739847D02*
X109497038Y-97436801D01*
X109648561Y-97588324D02*
X110355667Y-96881217D01*
X110204144Y-96931725D01*
X110086293Y-96948561D01*
X110002114Y-96931725D01*
X110052622Y-97992385D02*
X110153637Y-98093400D01*
X110237816Y-98110236D01*
X110296742Y-98101818D01*
X110448265Y-98051310D01*
X110608205Y-97941877D01*
X110877579Y-97672503D01*
X110919669Y-97579906D01*
X110928087Y-97520980D01*
X110911251Y-97436801D01*
X110810236Y-97335786D01*
X110726057Y-97318950D01*
X110667131Y-97327368D01*
X110574534Y-97369457D01*
X110406175Y-97537816D01*
X110364085Y-97630414D01*
X110355667Y-97689339D01*
X110372503Y-97773518D01*
X110473518Y-97874534D01*
X110557698Y-97891370D01*
X110616623Y-97882952D01*
X110709221Y-97840862D01*
X110136801Y-94257038D02*
X110195727Y-94248620D01*
X110279906Y-94265456D01*
X110406175Y-94391725D01*
X110423011Y-94475904D01*
X110414593Y-94534830D01*
X110372503Y-94627427D01*
X110305160Y-94694770D01*
X110178891Y-94770532D01*
X109471784Y-94871547D01*
X109800083Y-95199847D01*
X110835490Y-94821039D02*
X110885997Y-94871547D01*
X110902833Y-94955727D01*
X110894415Y-95014652D01*
X110852326Y-95107249D01*
X110742892Y-95267190D01*
X110574534Y-95435549D01*
X110414593Y-95544982D01*
X110321996Y-95587072D01*
X110263070Y-95595490D01*
X110178891Y-95578654D01*
X110128383Y-95528146D01*
X110111547Y-95443967D01*
X110119965Y-95385041D01*
X110162055Y-95292444D01*
X110271488Y-95132503D01*
X110439847Y-94964144D01*
X110599788Y-94854711D01*
X110692385Y-94812622D01*
X110751310Y-94804204D01*
X110835490Y-94821039D01*
X110136801Y-91717038D02*
X110195727Y-91708620D01*
X110279906Y-91725456D01*
X110406175Y-91851725D01*
X110423011Y-91935904D01*
X110414593Y-91994830D01*
X110372503Y-92087427D01*
X110305160Y-92154770D01*
X110178891Y-92230532D01*
X109471784Y-92331547D01*
X109800083Y-92659847D01*
X110641877Y-92222114D02*
X110700803Y-92213696D01*
X110784982Y-92230532D01*
X110911251Y-92356801D01*
X110928087Y-92440980D01*
X110919669Y-92499906D01*
X110877579Y-92592503D01*
X110810236Y-92659847D01*
X110683967Y-92735608D01*
X109976860Y-92836623D01*
X110305160Y-93164923D01*
X110136801Y-89177038D02*
X110195727Y-89168620D01*
X110279906Y-89185456D01*
X110406175Y-89311725D01*
X110423011Y-89395904D01*
X110414593Y-89454830D01*
X110372503Y-89547427D01*
X110305160Y-89614770D01*
X110178891Y-89690532D01*
X109471784Y-89791547D01*
X109800083Y-90119847D01*
X110683967Y-89589517D02*
X111012266Y-89917816D01*
X110566116Y-90010414D01*
X110641877Y-90086175D01*
X110658713Y-90170354D01*
X110650295Y-90229280D01*
X110608205Y-90321877D01*
X110439847Y-90490236D01*
X110347249Y-90532326D01*
X110288324Y-90540744D01*
X110204144Y-90523908D01*
X110052622Y-90372385D01*
X110035786Y-90288205D01*
X110044204Y-90229280D01*
X110136801Y-86637038D02*
X110195727Y-86628620D01*
X110279906Y-86645456D01*
X110406175Y-86771725D01*
X110423011Y-86855904D01*
X110414593Y-86914830D01*
X110372503Y-87007427D01*
X110305160Y-87074770D01*
X110178891Y-87150532D01*
X109471784Y-87251547D01*
X109800083Y-87579847D01*
X110726057Y-87563011D02*
X110254652Y-88034415D01*
X110869162Y-87167368D02*
X110237816Y-87546175D01*
X110566116Y-87874475D01*
D12*
G36*
X87935000Y-91745000D02*
G01*
X87300000Y-91745000D01*
X87300000Y-90475000D01*
X87935000Y-90475000D01*
X87935000Y-91745000D01*
G37*
X87935000Y-91745000D02*
X87300000Y-91745000D01*
X87300000Y-90475000D01*
X87935000Y-90475000D01*
X87935000Y-91745000D01*
D11*
X88937225Y-87428324D02*
X89821108Y-87958654D01*
X89290778Y-87074770D01*
D10*
X87554000Y-91745000D02*
X87554000Y-87935000D01*
D11*
X89265524Y-90246116D02*
X89770601Y-89741039D01*
X89568570Y-90347131D02*
X89871616Y-90044085D01*
X89215017Y-89690532D02*
X89518063Y-89993578D01*
X89972631Y-90347131D02*
X89871616Y-90448146D01*
X87537757Y-100136742D02*
X87335727Y-100338772D01*
X87529339Y-100195667D02*
X87394652Y-100330354D01*
X87554593Y-100220921D02*
X87419906Y-100355608D01*
X87512503Y-100313518D02*
X87563011Y-100364026D01*
X87546175Y-100279847D02*
X87478831Y-100347190D01*
X87512503Y-100111488D02*
X87563011Y-100364026D01*
X87310473Y-100313518D01*
X87588265Y-100389280D02*
X87276801Y-100347190D01*
X87546175Y-100077816D01*
X87588265Y-100389280D01*
X87537757Y-102676742D02*
X87335727Y-102878772D01*
X87529339Y-102735667D02*
X87394652Y-102870354D01*
X87554593Y-102760921D02*
X87419906Y-102895608D01*
X87512503Y-102853518D02*
X87563011Y-102904026D01*
X87546175Y-102819847D02*
X87478831Y-102887190D01*
X87512503Y-102651488D02*
X87563011Y-102904026D01*
X87310473Y-102853518D01*
X87588265Y-102929280D02*
X87276801Y-102887190D01*
X87546175Y-102617816D01*
X87588265Y-102929280D01*
X87537757Y-105216742D02*
X87335727Y-105418772D01*
X87529339Y-105275667D02*
X87394652Y-105410354D01*
X87554593Y-105300921D02*
X87419906Y-105435608D01*
X87512503Y-105393518D02*
X87563011Y-105444026D01*
X87546175Y-105359847D02*
X87478831Y-105427190D01*
X87512503Y-105191488D02*
X87563011Y-105444026D01*
X87310473Y-105393518D01*
X87588265Y-105469280D02*
X87276801Y-105427190D01*
X87546175Y-105157816D01*
X87588265Y-105469280D01*
X87537757Y-107756742D02*
X87335727Y-107958772D01*
X87529339Y-107815667D02*
X87394652Y-107950354D01*
X87554593Y-107840921D02*
X87419906Y-107975608D01*
X87512503Y-107933518D02*
X87563011Y-107984026D01*
X87546175Y-107899847D02*
X87478831Y-107967190D01*
X87512503Y-107731488D02*
X87563011Y-107984026D01*
X87310473Y-107933518D01*
X87588265Y-108009280D02*
X87276801Y-107967190D01*
X87546175Y-107697816D01*
X87588265Y-108009280D01*
X87537757Y-110296742D02*
X87335727Y-110498772D01*
X87529339Y-110355667D02*
X87394652Y-110490354D01*
X87554593Y-110380921D02*
X87419906Y-110515608D01*
X87512503Y-110473518D02*
X87563011Y-110524026D01*
X87546175Y-110439847D02*
X87478831Y-110507190D01*
X87512503Y-110271488D02*
X87563011Y-110524026D01*
X87310473Y-110473518D01*
X87588265Y-110549280D02*
X87276801Y-110507190D01*
X87546175Y-110237816D01*
X87588265Y-110549280D01*
X87537757Y-112836742D02*
X87335727Y-113038772D01*
X87529339Y-112895667D02*
X87394652Y-113030354D01*
X87554593Y-112920921D02*
X87419906Y-113055608D01*
X87512503Y-113013518D02*
X87563011Y-113064026D01*
X87546175Y-112979847D02*
X87478831Y-113047190D01*
X87512503Y-112811488D02*
X87563011Y-113064026D01*
X87310473Y-113013518D01*
X87588265Y-113089280D02*
X87276801Y-113047190D01*
X87546175Y-112777816D01*
X87588265Y-113089280D01*
X87537757Y-115376742D02*
X87335727Y-115578772D01*
X87529339Y-115435667D02*
X87394652Y-115570354D01*
X87554593Y-115460921D02*
X87419906Y-115595608D01*
X87512503Y-115553518D02*
X87563011Y-115604026D01*
X87546175Y-115519847D02*
X87478831Y-115587190D01*
X87512503Y-115351488D02*
X87563011Y-115604026D01*
X87310473Y-115553518D01*
X87588265Y-115629280D02*
X87276801Y-115587190D01*
X87546175Y-115317816D01*
X87588265Y-115629280D01*
X87537757Y-117916742D02*
X87335727Y-118118772D01*
X87529339Y-117975667D02*
X87394652Y-118110354D01*
X87554593Y-118000921D02*
X87419906Y-118135608D01*
X87512503Y-118093518D02*
X87563011Y-118144026D01*
X87546175Y-118059847D02*
X87478831Y-118127190D01*
X87512503Y-117891488D02*
X87563011Y-118144026D01*
X87310473Y-118093518D01*
X87588265Y-118169280D02*
X87276801Y-118127190D01*
X87546175Y-117857816D01*
X87588265Y-118169280D01*
X89114002Y-117731547D02*
X89164509Y-117681039D01*
X89248689Y-117664204D01*
X89307614Y-117672622D01*
X89400211Y-117714711D01*
X89560152Y-117824144D01*
X89728511Y-117992503D01*
X89837944Y-118152444D01*
X89880034Y-118245041D01*
X89888452Y-118303967D01*
X89871616Y-118388146D01*
X89821108Y-118438654D01*
X89736929Y-118455490D01*
X89678003Y-118447072D01*
X89585406Y-118404982D01*
X89425465Y-118295549D01*
X89257107Y-118127190D01*
X89147673Y-117967249D01*
X89105584Y-117874652D01*
X89097166Y-117815727D01*
X89114002Y-117731547D01*
X89770601Y-117074948D02*
X89518063Y-117327486D01*
X89829526Y-117689457D01*
X89821108Y-117630532D01*
X89837944Y-117546352D01*
X89964213Y-117420083D01*
X90048393Y-117403248D01*
X90107318Y-117411665D01*
X90199916Y-117453755D01*
X90368274Y-117622114D01*
X90410364Y-117714711D01*
X90418782Y-117773637D01*
X90401946Y-117857816D01*
X90275677Y-117984085D01*
X90191498Y-118000921D01*
X90132572Y-117992503D01*
X89114002Y-115191547D02*
X89164509Y-115141039D01*
X89248689Y-115124204D01*
X89307614Y-115132622D01*
X89400211Y-115174711D01*
X89560152Y-115284144D01*
X89728511Y-115452503D01*
X89837944Y-115612444D01*
X89880034Y-115705041D01*
X89888452Y-115763967D01*
X89871616Y-115848146D01*
X89821108Y-115898654D01*
X89736929Y-115915490D01*
X89678003Y-115907072D01*
X89585406Y-115864982D01*
X89425465Y-115755549D01*
X89257107Y-115587190D01*
X89147673Y-115427249D01*
X89105584Y-115334652D01*
X89097166Y-115275727D01*
X89114002Y-115191547D01*
X89981049Y-114795904D02*
X90452454Y-115267309D01*
X89585406Y-114652799D02*
X89964213Y-115284144D01*
X90292513Y-114955845D01*
X89114002Y-112651547D02*
X89164509Y-112601039D01*
X89248689Y-112584204D01*
X89307614Y-112592622D01*
X89400211Y-112634711D01*
X89560152Y-112744144D01*
X89728511Y-112912503D01*
X89837944Y-113072444D01*
X89880034Y-113165041D01*
X89888452Y-113223967D01*
X89871616Y-113308146D01*
X89821108Y-113358654D01*
X89736929Y-113375490D01*
X89678003Y-113367072D01*
X89585406Y-113324982D01*
X89425465Y-113215549D01*
X89257107Y-113047190D01*
X89147673Y-112887249D01*
X89105584Y-112794652D01*
X89097166Y-112735727D01*
X89114002Y-112651547D01*
X89467555Y-112297994D02*
X89795855Y-111969694D01*
X89888452Y-112415845D01*
X89964213Y-112340083D01*
X90048393Y-112323248D01*
X90107318Y-112331665D01*
X90199916Y-112373755D01*
X90368274Y-112542114D01*
X90410364Y-112634711D01*
X90418782Y-112693637D01*
X90401946Y-112777816D01*
X90250423Y-112929339D01*
X90166244Y-112946175D01*
X90107318Y-112937757D01*
X89114002Y-110111547D02*
X89164509Y-110061039D01*
X89248689Y-110044204D01*
X89307614Y-110052622D01*
X89400211Y-110094711D01*
X89560152Y-110204144D01*
X89728511Y-110372503D01*
X89837944Y-110532444D01*
X89880034Y-110625041D01*
X89888452Y-110683967D01*
X89871616Y-110768146D01*
X89821108Y-110818654D01*
X89736929Y-110835490D01*
X89678003Y-110827072D01*
X89585406Y-110784982D01*
X89425465Y-110675549D01*
X89257107Y-110507190D01*
X89147673Y-110347249D01*
X89105584Y-110254652D01*
X89097166Y-110195727D01*
X89114002Y-110111547D01*
X89560152Y-109800083D02*
X89551734Y-109741158D01*
X89568570Y-109656978D01*
X89694839Y-109530709D01*
X89779019Y-109513874D01*
X89837944Y-109522291D01*
X89930542Y-109564381D01*
X89997885Y-109631725D01*
X90073647Y-109757994D01*
X90174662Y-110465101D01*
X90502961Y-110136801D01*
X88962479Y-107723070D02*
X89290778Y-107394770D01*
X89383376Y-107840921D01*
X89459137Y-107765160D01*
X89543316Y-107748324D01*
X89602242Y-107756742D01*
X89694839Y-107798831D01*
X89863198Y-107967190D01*
X89905288Y-108059788D01*
X89913706Y-108118713D01*
X89896870Y-108202892D01*
X89745347Y-108354415D01*
X89661168Y-108371251D01*
X89602242Y-108362833D01*
X90502961Y-107596801D02*
X90199916Y-107899847D01*
X90351438Y-107748324D02*
X89644332Y-107041217D01*
X89694839Y-107192740D01*
X89711675Y-107310591D01*
X89694839Y-107394770D01*
X88962479Y-105183070D02*
X89290778Y-104854770D01*
X89383376Y-105300921D01*
X89459137Y-105225160D01*
X89543316Y-105208324D01*
X89602242Y-105216742D01*
X89694839Y-105258831D01*
X89863198Y-105427190D01*
X89905288Y-105519788D01*
X89913706Y-105578713D01*
X89896870Y-105662892D01*
X89745347Y-105814415D01*
X89661168Y-105831251D01*
X89602242Y-105822833D01*
X89619078Y-104526471D02*
X89669585Y-104475963D01*
X89753765Y-104459127D01*
X89812690Y-104467545D01*
X89905288Y-104509635D01*
X90065229Y-104619068D01*
X90233587Y-104787427D01*
X90343021Y-104947368D01*
X90385110Y-105039965D01*
X90393528Y-105098891D01*
X90376692Y-105183070D01*
X90326185Y-105233578D01*
X90242005Y-105250414D01*
X90183080Y-105241996D01*
X90090482Y-105199906D01*
X89930542Y-105090473D01*
X89762183Y-104922114D01*
X89652750Y-104762173D01*
X89610660Y-104669576D01*
X89602242Y-104610650D01*
X89619078Y-104526471D01*
X89055076Y-102685160D02*
X89046658Y-102626234D01*
X89063494Y-102542055D01*
X89189763Y-102415786D01*
X89273942Y-102398950D01*
X89332868Y-102407368D01*
X89425465Y-102449457D01*
X89492809Y-102516801D01*
X89568570Y-102643070D01*
X89669585Y-103350177D01*
X89997885Y-103021877D01*
X90250423Y-102769339D02*
X90351438Y-102668324D01*
X90368274Y-102584144D01*
X90359856Y-102525219D01*
X90309349Y-102373696D01*
X90199916Y-102213755D01*
X89930542Y-101944381D01*
X89837944Y-101902291D01*
X89779019Y-101893874D01*
X89694839Y-101910709D01*
X89593824Y-102011725D01*
X89576988Y-102095904D01*
X89585406Y-102154830D01*
X89627496Y-102247427D01*
X89795855Y-102415786D01*
X89888452Y-102457875D01*
X89947377Y-102466293D01*
X90031557Y-102449457D01*
X90132572Y-102348442D01*
X90149408Y-102264263D01*
X90140990Y-102205337D01*
X90098900Y-102112740D01*
X89055076Y-100145160D02*
X89046658Y-100086234D01*
X89063494Y-100002055D01*
X89189763Y-99875786D01*
X89273942Y-99858950D01*
X89332868Y-99867368D01*
X89425465Y-99909457D01*
X89492809Y-99976801D01*
X89568570Y-100103070D01*
X89669585Y-100810177D01*
X89997885Y-100481877D01*
X89896870Y-99774770D02*
X89812690Y-99791606D01*
X89753765Y-99783188D01*
X89661168Y-99741099D01*
X89627496Y-99707427D01*
X89585406Y-99614830D01*
X89576988Y-99555904D01*
X89593824Y-99471725D01*
X89694839Y-99370709D01*
X89779019Y-99353874D01*
X89837944Y-99362291D01*
X89930542Y-99404381D01*
X89964213Y-99438053D01*
X90006303Y-99530650D01*
X90014721Y-99589576D01*
X89997885Y-99673755D01*
X89896870Y-99774770D01*
X89880034Y-99858950D01*
X89888452Y-99917875D01*
X89930542Y-100010473D01*
X90065229Y-100145160D01*
X90157826Y-100187249D01*
X90216751Y-100195667D01*
X90300931Y-100178831D01*
X90401946Y-100077816D01*
X90418782Y-99993637D01*
X90410364Y-99934711D01*
X90368274Y-99842114D01*
X90233587Y-99707427D01*
X90140990Y-99665337D01*
X90082064Y-99656919D01*
X89997885Y-99673755D01*
X89055076Y-97605160D02*
X89046658Y-97546234D01*
X89063494Y-97462055D01*
X89189763Y-97335786D01*
X89273942Y-97318950D01*
X89332868Y-97327368D01*
X89425465Y-97369457D01*
X89492809Y-97436801D01*
X89568570Y-97563070D01*
X89669585Y-98270177D01*
X89997885Y-97941877D01*
X89467555Y-97057994D02*
X89821108Y-96704440D01*
X90300931Y-97638831D01*
X89055076Y-92525160D02*
X89046658Y-92466234D01*
X89063494Y-92382055D01*
X89189763Y-92255786D01*
X89273942Y-92238950D01*
X89332868Y-92247368D01*
X89425465Y-92289457D01*
X89492809Y-92356801D01*
X89568570Y-92483070D01*
X89669585Y-93190177D01*
X89997885Y-92861877D01*
X89770601Y-91674948D02*
X89518063Y-91927486D01*
X89829526Y-92289457D01*
X89821108Y-92230532D01*
X89837944Y-92146352D01*
X89964213Y-92020083D01*
X90048393Y-92003248D01*
X90107318Y-92011665D01*
X90199916Y-92053755D01*
X90368274Y-92222114D01*
X90410364Y-92314711D01*
X90418782Y-92373637D01*
X90401946Y-92457816D01*
X90275677Y-92584085D01*
X90191498Y-92600921D01*
X90132572Y-92592503D01*
X89055076Y-95065160D02*
X89046658Y-95006234D01*
X89063494Y-94922055D01*
X89189763Y-94795786D01*
X89273942Y-94778950D01*
X89332868Y-94787368D01*
X89425465Y-94829457D01*
X89492809Y-94896801D01*
X89568570Y-95023070D01*
X89669585Y-95730177D01*
X89997885Y-95401877D01*
X89745347Y-94240202D02*
X89644332Y-94341217D01*
X89627496Y-94425396D01*
X89635914Y-94484322D01*
X89686421Y-94635845D01*
X89795855Y-94795786D01*
X90065229Y-95065160D01*
X90157826Y-95107249D01*
X90216751Y-95115667D01*
X90300931Y-95098831D01*
X90401946Y-94997816D01*
X90418782Y-94913637D01*
X90410364Y-94854711D01*
X90368274Y-94762114D01*
X90199916Y-94593755D01*
X90107318Y-94551665D01*
X90048393Y-94543248D01*
X89964213Y-94560083D01*
X89863198Y-94661099D01*
X89846362Y-94745278D01*
X89854780Y-94804204D01*
X89896870Y-94896801D01*
D10*
X96765000Y-118275000D02*
X96765000Y-114745000D01*
X103235000Y-118275000D02*
X103235000Y-114745000D01*
X96830000Y-119600000D02*
X96830000Y-118275000D01*
X96765000Y-118275000D02*
X96830000Y-118275000D01*
X96765000Y-114745000D02*
X96830000Y-114745000D01*
X103170000Y-118275000D02*
X103235000Y-118275000D01*
X103170000Y-114745000D02*
X103235000Y-114745000D01*
X91130000Y-110125000D02*
X91130000Y-109005000D01*
X91130000Y-110125000D02*
X92280000Y-110125000D01*
X108870000Y-110125000D02*
X108870000Y-109005000D01*
X108870000Y-110125000D02*
X107720000Y-110125000D01*
X108870000Y-89955000D02*
X108870000Y-90995000D01*
X91130000Y-89955000D02*
X91130000Y-90995000D01*
X108870000Y-81185000D02*
X108870000Y-87165000D01*
X108870000Y-81185000D02*
X91130000Y-81185000D01*
X91130000Y-81185000D02*
X91130000Y-87165000D01*
X91130000Y-87165000D02*
X90630000Y-87165000D01*
D11*
X92645000Y-117910000D02*
X92645000Y-115110000D01*
X91345000Y-117910000D02*
X90845000Y-117910000D01*
X90845000Y-117910000D02*
X90845000Y-115110000D01*
D10*
X109375000Y-114890000D02*
X109375000Y-118130000D01*
X109375000Y-118130000D02*
X109275000Y-118130000D01*
X109375000Y-114890000D02*
X109275000Y-114890000D01*
X107135000Y-114890000D02*
X107135000Y-118130000D01*
X107235000Y-118130000D02*
X107135000Y-118130000D01*
X107235000Y-114890000D02*
X107135000Y-114890000D01*
X109825000Y-114440000D02*
X109825000Y-118580000D01*
X106985000Y-118580000D02*
X106685000Y-118580000D01*
X106685000Y-118580000D02*
X106685000Y-114440000D01*
X109525000Y-114440000D02*
X109825000Y-114440000D01*
X106685000Y-114440000D02*
X106985000Y-114440000D01*
X109825000Y-118580000D02*
X109525000Y-118580000D01*
D11*
X91006904Y-119502380D02*
X91006904Y-118502380D01*
X91245000Y-118502380D01*
X91387857Y-118550000D01*
X91483095Y-118645238D01*
X91530714Y-118740476D01*
X91578333Y-118930952D01*
X91578333Y-119073809D01*
X91530714Y-119264285D01*
X91483095Y-119359523D01*
X91387857Y-119454761D01*
X91245000Y-119502380D01*
X91006904Y-119502380D01*
X92530714Y-119502380D02*
X91959285Y-119502380D01*
X92245000Y-119502380D02*
X92245000Y-118502380D01*
X92149761Y-118645238D01*
X92054523Y-118740476D01*
X91959285Y-118788095D01*
X106921666Y-120089761D02*
X107064523Y-120137380D01*
X107302619Y-120137380D01*
X107397857Y-120089761D01*
X107445476Y-120042142D01*
X107493095Y-119946904D01*
X107493095Y-119851666D01*
X107445476Y-119756428D01*
X107397857Y-119708809D01*
X107302619Y-119661190D01*
X107112142Y-119613571D01*
X107016904Y-119565952D01*
X106969285Y-119518333D01*
X106921666Y-119423095D01*
X106921666Y-119327857D01*
X106969285Y-119232619D01*
X107016904Y-119185000D01*
X107112142Y-119137380D01*
X107350238Y-119137380D01*
X107493095Y-119185000D01*
X107826428Y-119137380D02*
X108064523Y-120137380D01*
X108255000Y-119423095D01*
X108445476Y-120137380D01*
X108683571Y-119137380D01*
X109588333Y-120137380D02*
X109016904Y-120137380D01*
X109302619Y-120137380D02*
X109302619Y-119137380D01*
X109207380Y-119280238D01*
X109112142Y-119375476D01*
X109016904Y-119423095D01*
M02*
