G04 #@! TF.GenerationSoftware,KiCad,Pcbnew,(5.1.0)-1*
G04 #@! TF.CreationDate,2019-03-29T02:28:53-07:00*
G04 #@! TF.ProjectId,e73-breakout,6537332d-6272-4656-916b-6f75742e6b69,rev?*
G04 #@! TF.SameCoordinates,Original*
G04 #@! TF.FileFunction,Soldermask,Bot*
G04 #@! TF.FilePolarity,Negative*
%FSLAX46Y46*%
G04 Gerber Fmt 4.6, Leading zero omitted, Abs format (unit mm)*
G04 Created by KiCad (PCBNEW (5.1.0)-1) date 2019-03-29 02:28:53*
%MOMM*%
%LPD*%
G04 APERTURE LIST*
%ADD10C,0.100000*%
%ADD11C,1.500000*%
%ADD12C,0.700000*%
G04 APERTURE END LIST*
D10*
G36*
X94785000Y-104125000D02*
G01*
X94785000Y-104765000D01*
X93785000Y-104765000D01*
X93785000Y-104125000D01*
X94785000Y-104125000D01*
G37*
D11*
X102250000Y-89205000D02*
G75*
G03X102250000Y-89205000I-750000J0D01*
G01*
X99250000Y-89205000D02*
G75*
G03X99250000Y-89205000I-750000J0D01*
G01*
D12*
X98100000Y-93650000D02*
G75*
G03X98100000Y-93650000I-350000J0D01*
G01*
X99600000Y-93650000D02*
G75*
G03X99600000Y-93650000I-350000J0D01*
G01*
X101100000Y-93650000D02*
G75*
G03X101100000Y-93650000I-350000J0D01*
G01*
X102600000Y-93650000D02*
G75*
G03X102600000Y-93650000I-350000J0D01*
G01*
D10*
G36*
X111540443Y-118155519D02*
G01*
X111606627Y-118162037D01*
X111776466Y-118213557D01*
X111932991Y-118297222D01*
X111968729Y-118326552D01*
X112070186Y-118409814D01*
X112153448Y-118511271D01*
X112182778Y-118547009D01*
X112266443Y-118703534D01*
X112317963Y-118873373D01*
X112335359Y-119050000D01*
X112317963Y-119226627D01*
X112266443Y-119396466D01*
X112182778Y-119552991D01*
X112167746Y-119571307D01*
X112070186Y-119690186D01*
X111968729Y-119773448D01*
X111932991Y-119802778D01*
X111776466Y-119886443D01*
X111606627Y-119937963D01*
X111540442Y-119944482D01*
X111474260Y-119951000D01*
X111385740Y-119951000D01*
X111319558Y-119944482D01*
X111253373Y-119937963D01*
X111083534Y-119886443D01*
X110927009Y-119802778D01*
X110891271Y-119773448D01*
X110789814Y-119690186D01*
X110692254Y-119571307D01*
X110677222Y-119552991D01*
X110593557Y-119396466D01*
X110542037Y-119226627D01*
X110524641Y-119050000D01*
X110542037Y-118873373D01*
X110593557Y-118703534D01*
X110677222Y-118547009D01*
X110706552Y-118511271D01*
X110789814Y-118409814D01*
X110891271Y-118326552D01*
X110927009Y-118297222D01*
X111083534Y-118213557D01*
X111253373Y-118162037D01*
X111319557Y-118155519D01*
X111385740Y-118149000D01*
X111474260Y-118149000D01*
X111540443Y-118155519D01*
X111540443Y-118155519D01*
G37*
G36*
X88680443Y-118155519D02*
G01*
X88746627Y-118162037D01*
X88916466Y-118213557D01*
X89072991Y-118297222D01*
X89108729Y-118326552D01*
X89210186Y-118409814D01*
X89293448Y-118511271D01*
X89322778Y-118547009D01*
X89406443Y-118703534D01*
X89457963Y-118873373D01*
X89475359Y-119050000D01*
X89457963Y-119226627D01*
X89406443Y-119396466D01*
X89322778Y-119552991D01*
X89307746Y-119571307D01*
X89210186Y-119690186D01*
X89108729Y-119773448D01*
X89072991Y-119802778D01*
X88916466Y-119886443D01*
X88746627Y-119937963D01*
X88680442Y-119944482D01*
X88614260Y-119951000D01*
X88525740Y-119951000D01*
X88459558Y-119944482D01*
X88393373Y-119937963D01*
X88223534Y-119886443D01*
X88067009Y-119802778D01*
X88031271Y-119773448D01*
X87929814Y-119690186D01*
X87832254Y-119571307D01*
X87817222Y-119552991D01*
X87733557Y-119396466D01*
X87682037Y-119226627D01*
X87664641Y-119050000D01*
X87682037Y-118873373D01*
X87733557Y-118703534D01*
X87817222Y-118547009D01*
X87846552Y-118511271D01*
X87929814Y-118409814D01*
X88031271Y-118326552D01*
X88067009Y-118297222D01*
X88223534Y-118213557D01*
X88393373Y-118162037D01*
X88459557Y-118155519D01*
X88525740Y-118149000D01*
X88614260Y-118149000D01*
X88680443Y-118155519D01*
X88680443Y-118155519D01*
G37*
G36*
X108749591Y-118528085D02*
G01*
X108783569Y-118538393D01*
X108814890Y-118555134D01*
X108842339Y-118577661D01*
X108864866Y-118605110D01*
X108881607Y-118636431D01*
X108891915Y-118670409D01*
X108896000Y-118711890D01*
X108896000Y-119388110D01*
X108891915Y-119429591D01*
X108881607Y-119463569D01*
X108864866Y-119494890D01*
X108842339Y-119522339D01*
X108814890Y-119544866D01*
X108783569Y-119561607D01*
X108749591Y-119571915D01*
X108708110Y-119576000D01*
X108106890Y-119576000D01*
X108065409Y-119571915D01*
X108031431Y-119561607D01*
X108000110Y-119544866D01*
X107972661Y-119522339D01*
X107950134Y-119494890D01*
X107933393Y-119463569D01*
X107923085Y-119429591D01*
X107919000Y-119388110D01*
X107919000Y-118711890D01*
X107923085Y-118670409D01*
X107933393Y-118636431D01*
X107950134Y-118605110D01*
X107972661Y-118577661D01*
X108000110Y-118555134D01*
X108031431Y-118538393D01*
X108065409Y-118528085D01*
X108106890Y-118524000D01*
X108708110Y-118524000D01*
X108749591Y-118528085D01*
X108749591Y-118528085D01*
G37*
G36*
X107174591Y-118528085D02*
G01*
X107208569Y-118538393D01*
X107239890Y-118555134D01*
X107267339Y-118577661D01*
X107289866Y-118605110D01*
X107306607Y-118636431D01*
X107316915Y-118670409D01*
X107321000Y-118711890D01*
X107321000Y-119388110D01*
X107316915Y-119429591D01*
X107306607Y-119463569D01*
X107289866Y-119494890D01*
X107267339Y-119522339D01*
X107239890Y-119544866D01*
X107208569Y-119561607D01*
X107174591Y-119571915D01*
X107133110Y-119576000D01*
X106531890Y-119576000D01*
X106490409Y-119571915D01*
X106456431Y-119561607D01*
X106425110Y-119544866D01*
X106397661Y-119522339D01*
X106375134Y-119494890D01*
X106358393Y-119463569D01*
X106348085Y-119429591D01*
X106344000Y-119388110D01*
X106344000Y-118711890D01*
X106348085Y-118670409D01*
X106358393Y-118636431D01*
X106375134Y-118605110D01*
X106397661Y-118577661D01*
X106425110Y-118555134D01*
X106456431Y-118538393D01*
X106490409Y-118528085D01*
X106531890Y-118524000D01*
X107133110Y-118524000D01*
X107174591Y-118528085D01*
X107174591Y-118528085D01*
G37*
G36*
X92666000Y-117961000D02*
G01*
X91664000Y-117961000D01*
X91664000Y-117459000D01*
X92666000Y-117459000D01*
X92666000Y-117961000D01*
X92666000Y-117961000D01*
G37*
G36*
X94366000Y-117961000D02*
G01*
X93364000Y-117961000D01*
X93364000Y-117459000D01*
X94366000Y-117459000D01*
X94366000Y-117961000D01*
X94366000Y-117961000D01*
G37*
G36*
X111540443Y-115615519D02*
G01*
X111606627Y-115622037D01*
X111776466Y-115673557D01*
X111932991Y-115757222D01*
X111968729Y-115786552D01*
X112070186Y-115869814D01*
X112153448Y-115971271D01*
X112182778Y-116007009D01*
X112266443Y-116163534D01*
X112317963Y-116333373D01*
X112335359Y-116510000D01*
X112317963Y-116686627D01*
X112266443Y-116856466D01*
X112182778Y-117012991D01*
X112167746Y-117031307D01*
X112070186Y-117150186D01*
X111968729Y-117233448D01*
X111932991Y-117262778D01*
X111776466Y-117346443D01*
X111606627Y-117397963D01*
X111540443Y-117404481D01*
X111474260Y-117411000D01*
X111385740Y-117411000D01*
X111319557Y-117404481D01*
X111253373Y-117397963D01*
X111083534Y-117346443D01*
X110927009Y-117262778D01*
X110891271Y-117233448D01*
X110789814Y-117150186D01*
X110692254Y-117031307D01*
X110677222Y-117012991D01*
X110593557Y-116856466D01*
X110542037Y-116686627D01*
X110524641Y-116510000D01*
X110542037Y-116333373D01*
X110593557Y-116163534D01*
X110677222Y-116007009D01*
X110706552Y-115971271D01*
X110789814Y-115869814D01*
X110891271Y-115786552D01*
X110927009Y-115757222D01*
X111083534Y-115673557D01*
X111253373Y-115622037D01*
X111319557Y-115615519D01*
X111385740Y-115609000D01*
X111474260Y-115609000D01*
X111540443Y-115615519D01*
X111540443Y-115615519D01*
G37*
G36*
X88680443Y-115615519D02*
G01*
X88746627Y-115622037D01*
X88916466Y-115673557D01*
X89072991Y-115757222D01*
X89108729Y-115786552D01*
X89210186Y-115869814D01*
X89293448Y-115971271D01*
X89322778Y-116007009D01*
X89406443Y-116163534D01*
X89457963Y-116333373D01*
X89475359Y-116510000D01*
X89457963Y-116686627D01*
X89406443Y-116856466D01*
X89322778Y-117012991D01*
X89307746Y-117031307D01*
X89210186Y-117150186D01*
X89108729Y-117233448D01*
X89072991Y-117262778D01*
X88916466Y-117346443D01*
X88746627Y-117397963D01*
X88680443Y-117404481D01*
X88614260Y-117411000D01*
X88525740Y-117411000D01*
X88459557Y-117404481D01*
X88393373Y-117397963D01*
X88223534Y-117346443D01*
X88067009Y-117262778D01*
X88031271Y-117233448D01*
X87929814Y-117150186D01*
X87832254Y-117031307D01*
X87817222Y-117012991D01*
X87733557Y-116856466D01*
X87682037Y-116686627D01*
X87664641Y-116510000D01*
X87682037Y-116333373D01*
X87733557Y-116163534D01*
X87817222Y-116007009D01*
X87846552Y-115971271D01*
X87929814Y-115869814D01*
X88031271Y-115786552D01*
X88067009Y-115757222D01*
X88223534Y-115673557D01*
X88393373Y-115622037D01*
X88459557Y-115615519D01*
X88525740Y-115609000D01*
X88614260Y-115609000D01*
X88680443Y-115615519D01*
X88680443Y-115615519D01*
G37*
G36*
X92666000Y-117161000D02*
G01*
X91664000Y-117161000D01*
X91664000Y-116659000D01*
X92666000Y-116659000D01*
X92666000Y-117161000D01*
X92666000Y-117161000D01*
G37*
G36*
X94366000Y-117161000D02*
G01*
X93364000Y-117161000D01*
X93364000Y-116659000D01*
X94366000Y-116659000D01*
X94366000Y-117161000D01*
X94366000Y-117161000D01*
G37*
G36*
X107174591Y-115988085D02*
G01*
X107208569Y-115998393D01*
X107239890Y-116015134D01*
X107267339Y-116037661D01*
X107289866Y-116065110D01*
X107306607Y-116096431D01*
X107316915Y-116130409D01*
X107321000Y-116171890D01*
X107321000Y-116848110D01*
X107316915Y-116889591D01*
X107306607Y-116923569D01*
X107289866Y-116954890D01*
X107267339Y-116982339D01*
X107239890Y-117004866D01*
X107208569Y-117021607D01*
X107174591Y-117031915D01*
X107133110Y-117036000D01*
X106531890Y-117036000D01*
X106490409Y-117031915D01*
X106456431Y-117021607D01*
X106425110Y-117004866D01*
X106397661Y-116982339D01*
X106375134Y-116954890D01*
X106358393Y-116923569D01*
X106348085Y-116889591D01*
X106344000Y-116848110D01*
X106344000Y-116171890D01*
X106348085Y-116130409D01*
X106358393Y-116096431D01*
X106375134Y-116065110D01*
X106397661Y-116037661D01*
X106425110Y-116015134D01*
X106456431Y-115998393D01*
X106490409Y-115988085D01*
X106531890Y-115984000D01*
X107133110Y-115984000D01*
X107174591Y-115988085D01*
X107174591Y-115988085D01*
G37*
G36*
X108749591Y-115988085D02*
G01*
X108783569Y-115998393D01*
X108814890Y-116015134D01*
X108842339Y-116037661D01*
X108864866Y-116065110D01*
X108881607Y-116096431D01*
X108891915Y-116130409D01*
X108896000Y-116171890D01*
X108896000Y-116848110D01*
X108891915Y-116889591D01*
X108881607Y-116923569D01*
X108864866Y-116954890D01*
X108842339Y-116982339D01*
X108814890Y-117004866D01*
X108783569Y-117021607D01*
X108749591Y-117031915D01*
X108708110Y-117036000D01*
X108106890Y-117036000D01*
X108065409Y-117031915D01*
X108031431Y-117021607D01*
X108000110Y-117004866D01*
X107972661Y-116982339D01*
X107950134Y-116954890D01*
X107933393Y-116923569D01*
X107923085Y-116889591D01*
X107919000Y-116848110D01*
X107919000Y-116171890D01*
X107923085Y-116130409D01*
X107933393Y-116096431D01*
X107950134Y-116065110D01*
X107972661Y-116037661D01*
X108000110Y-116015134D01*
X108031431Y-115998393D01*
X108065409Y-115988085D01*
X108106890Y-115984000D01*
X108708110Y-115984000D01*
X108749591Y-115988085D01*
X108749591Y-115988085D01*
G37*
G36*
X94366000Y-116361000D02*
G01*
X93364000Y-116361000D01*
X93364000Y-115859000D01*
X94366000Y-115859000D01*
X94366000Y-116361000D01*
X94366000Y-116361000D01*
G37*
G36*
X92666000Y-116361000D02*
G01*
X91664000Y-116361000D01*
X91664000Y-115859000D01*
X92666000Y-115859000D01*
X92666000Y-116361000D01*
X92666000Y-116361000D01*
G37*
G36*
X94366000Y-115561000D02*
G01*
X93364000Y-115561000D01*
X93364000Y-115059000D01*
X94366000Y-115059000D01*
X94366000Y-115561000D01*
X94366000Y-115561000D01*
G37*
G36*
X92666000Y-115561000D02*
G01*
X91664000Y-115561000D01*
X91664000Y-115059000D01*
X92666000Y-115059000D01*
X92666000Y-115561000D01*
X92666000Y-115561000D01*
G37*
G36*
X88680443Y-113075519D02*
G01*
X88746627Y-113082037D01*
X88916466Y-113133557D01*
X89072991Y-113217222D01*
X89108729Y-113246552D01*
X89210186Y-113329814D01*
X89293448Y-113431271D01*
X89322778Y-113467009D01*
X89406443Y-113623534D01*
X89457963Y-113793373D01*
X89475359Y-113970000D01*
X89457963Y-114146627D01*
X89406443Y-114316466D01*
X89322778Y-114472991D01*
X89307746Y-114491307D01*
X89210186Y-114610186D01*
X89108729Y-114693448D01*
X89072991Y-114722778D01*
X88916466Y-114806443D01*
X88746627Y-114857963D01*
X88680443Y-114864481D01*
X88614260Y-114871000D01*
X88525740Y-114871000D01*
X88459557Y-114864481D01*
X88393373Y-114857963D01*
X88223534Y-114806443D01*
X88067009Y-114722778D01*
X88031271Y-114693448D01*
X87929814Y-114610186D01*
X87832254Y-114491307D01*
X87817222Y-114472991D01*
X87733557Y-114316466D01*
X87682037Y-114146627D01*
X87664641Y-113970000D01*
X87682037Y-113793373D01*
X87733557Y-113623534D01*
X87817222Y-113467009D01*
X87846552Y-113431271D01*
X87929814Y-113329814D01*
X88031271Y-113246552D01*
X88067009Y-113217222D01*
X88223534Y-113133557D01*
X88393373Y-113082037D01*
X88459557Y-113075519D01*
X88525740Y-113069000D01*
X88614260Y-113069000D01*
X88680443Y-113075519D01*
X88680443Y-113075519D01*
G37*
G36*
X111540443Y-113075519D02*
G01*
X111606627Y-113082037D01*
X111776466Y-113133557D01*
X111932991Y-113217222D01*
X111968729Y-113246552D01*
X112070186Y-113329814D01*
X112153448Y-113431271D01*
X112182778Y-113467009D01*
X112266443Y-113623534D01*
X112317963Y-113793373D01*
X112335359Y-113970000D01*
X112317963Y-114146627D01*
X112266443Y-114316466D01*
X112182778Y-114472991D01*
X112167746Y-114491307D01*
X112070186Y-114610186D01*
X111968729Y-114693448D01*
X111932991Y-114722778D01*
X111776466Y-114806443D01*
X111606627Y-114857963D01*
X111540443Y-114864481D01*
X111474260Y-114871000D01*
X111385740Y-114871000D01*
X111319557Y-114864481D01*
X111253373Y-114857963D01*
X111083534Y-114806443D01*
X110927009Y-114722778D01*
X110891271Y-114693448D01*
X110789814Y-114610186D01*
X110692254Y-114491307D01*
X110677222Y-114472991D01*
X110593557Y-114316466D01*
X110542037Y-114146627D01*
X110524641Y-113970000D01*
X110542037Y-113793373D01*
X110593557Y-113623534D01*
X110677222Y-113467009D01*
X110706552Y-113431271D01*
X110789814Y-113329814D01*
X110891271Y-113246552D01*
X110927009Y-113217222D01*
X111083534Y-113133557D01*
X111253373Y-113082037D01*
X111319557Y-113075519D01*
X111385740Y-113069000D01*
X111474260Y-113069000D01*
X111540443Y-113075519D01*
X111540443Y-113075519D01*
G37*
G36*
X107174591Y-113448085D02*
G01*
X107208569Y-113458393D01*
X107239890Y-113475134D01*
X107267339Y-113497661D01*
X107289866Y-113525110D01*
X107306607Y-113556431D01*
X107316915Y-113590409D01*
X107321000Y-113631890D01*
X107321000Y-114308110D01*
X107316915Y-114349591D01*
X107306607Y-114383569D01*
X107289866Y-114414890D01*
X107267339Y-114442339D01*
X107239890Y-114464866D01*
X107208569Y-114481607D01*
X107174591Y-114491915D01*
X107133110Y-114496000D01*
X106531890Y-114496000D01*
X106490409Y-114491915D01*
X106456431Y-114481607D01*
X106425110Y-114464866D01*
X106397661Y-114442339D01*
X106375134Y-114414890D01*
X106358393Y-114383569D01*
X106348085Y-114349591D01*
X106344000Y-114308110D01*
X106344000Y-113631890D01*
X106348085Y-113590409D01*
X106358393Y-113556431D01*
X106375134Y-113525110D01*
X106397661Y-113497661D01*
X106425110Y-113475134D01*
X106456431Y-113458393D01*
X106490409Y-113448085D01*
X106531890Y-113444000D01*
X107133110Y-113444000D01*
X107174591Y-113448085D01*
X107174591Y-113448085D01*
G37*
G36*
X108749591Y-113448085D02*
G01*
X108783569Y-113458393D01*
X108814890Y-113475134D01*
X108842339Y-113497661D01*
X108864866Y-113525110D01*
X108881607Y-113556431D01*
X108891915Y-113590409D01*
X108896000Y-113631890D01*
X108896000Y-114308110D01*
X108891915Y-114349591D01*
X108881607Y-114383569D01*
X108864866Y-114414890D01*
X108842339Y-114442339D01*
X108814890Y-114464866D01*
X108783569Y-114481607D01*
X108749591Y-114491915D01*
X108708110Y-114496000D01*
X108106890Y-114496000D01*
X108065409Y-114491915D01*
X108031431Y-114481607D01*
X108000110Y-114464866D01*
X107972661Y-114442339D01*
X107950134Y-114414890D01*
X107933393Y-114383569D01*
X107923085Y-114349591D01*
X107919000Y-114308110D01*
X107919000Y-113631890D01*
X107923085Y-113590409D01*
X107933393Y-113556431D01*
X107950134Y-113525110D01*
X107972661Y-113497661D01*
X108000110Y-113475134D01*
X108031431Y-113458393D01*
X108065409Y-113448085D01*
X108106890Y-113444000D01*
X108708110Y-113444000D01*
X108749591Y-113448085D01*
X108749591Y-113448085D01*
G37*
G36*
X99554591Y-113448085D02*
G01*
X99588569Y-113458393D01*
X99619890Y-113475134D01*
X99647339Y-113497661D01*
X99669866Y-113525110D01*
X99686607Y-113556431D01*
X99696915Y-113590409D01*
X99701000Y-113631890D01*
X99701000Y-114308110D01*
X99696915Y-114349591D01*
X99686607Y-114383569D01*
X99669866Y-114414890D01*
X99647339Y-114442339D01*
X99619890Y-114464866D01*
X99588569Y-114481607D01*
X99554591Y-114491915D01*
X99513110Y-114496000D01*
X98911890Y-114496000D01*
X98870409Y-114491915D01*
X98836431Y-114481607D01*
X98805110Y-114464866D01*
X98777661Y-114442339D01*
X98755134Y-114414890D01*
X98738393Y-114383569D01*
X98728085Y-114349591D01*
X98724000Y-114308110D01*
X98724000Y-113631890D01*
X98728085Y-113590409D01*
X98738393Y-113556431D01*
X98755134Y-113525110D01*
X98777661Y-113497661D01*
X98805110Y-113475134D01*
X98836431Y-113458393D01*
X98870409Y-113448085D01*
X98911890Y-113444000D01*
X99513110Y-113444000D01*
X99554591Y-113448085D01*
X99554591Y-113448085D01*
G37*
G36*
X101129591Y-113448085D02*
G01*
X101163569Y-113458393D01*
X101194890Y-113475134D01*
X101222339Y-113497661D01*
X101244866Y-113525110D01*
X101261607Y-113556431D01*
X101271915Y-113590409D01*
X101276000Y-113631890D01*
X101276000Y-114308110D01*
X101271915Y-114349591D01*
X101261607Y-114383569D01*
X101244866Y-114414890D01*
X101222339Y-114442339D01*
X101194890Y-114464866D01*
X101163569Y-114481607D01*
X101129591Y-114491915D01*
X101088110Y-114496000D01*
X100486890Y-114496000D01*
X100445409Y-114491915D01*
X100411431Y-114481607D01*
X100380110Y-114464866D01*
X100352661Y-114442339D01*
X100330134Y-114414890D01*
X100313393Y-114383569D01*
X100303085Y-114349591D01*
X100299000Y-114308110D01*
X100299000Y-113631890D01*
X100303085Y-113590409D01*
X100313393Y-113556431D01*
X100330134Y-113525110D01*
X100352661Y-113497661D01*
X100380110Y-113475134D01*
X100411431Y-113458393D01*
X100445409Y-113448085D01*
X100486890Y-113444000D01*
X101088110Y-113444000D01*
X101129591Y-113448085D01*
X101129591Y-113448085D01*
G37*
G36*
X111540443Y-110535519D02*
G01*
X111606627Y-110542037D01*
X111776466Y-110593557D01*
X111932991Y-110677222D01*
X111968729Y-110706552D01*
X112070186Y-110789814D01*
X112153448Y-110891271D01*
X112182778Y-110927009D01*
X112266443Y-111083534D01*
X112317963Y-111253373D01*
X112335359Y-111430000D01*
X112317963Y-111606627D01*
X112266443Y-111776466D01*
X112182778Y-111932991D01*
X112153448Y-111968729D01*
X112070186Y-112070186D01*
X111968729Y-112153448D01*
X111932991Y-112182778D01*
X111776466Y-112266443D01*
X111606627Y-112317963D01*
X111540443Y-112324481D01*
X111474260Y-112331000D01*
X111385740Y-112331000D01*
X111319557Y-112324481D01*
X111253373Y-112317963D01*
X111083534Y-112266443D01*
X110927009Y-112182778D01*
X110891271Y-112153448D01*
X110789814Y-112070186D01*
X110706552Y-111968729D01*
X110677222Y-111932991D01*
X110593557Y-111776466D01*
X110542037Y-111606627D01*
X110524641Y-111430000D01*
X110542037Y-111253373D01*
X110593557Y-111083534D01*
X110677222Y-110927009D01*
X110706552Y-110891271D01*
X110789814Y-110789814D01*
X110891271Y-110706552D01*
X110927009Y-110677222D01*
X111083534Y-110593557D01*
X111253373Y-110542037D01*
X111319557Y-110535519D01*
X111385740Y-110529000D01*
X111474260Y-110529000D01*
X111540443Y-110535519D01*
X111540443Y-110535519D01*
G37*
G36*
X88680443Y-110535519D02*
G01*
X88746627Y-110542037D01*
X88916466Y-110593557D01*
X89072991Y-110677222D01*
X89108729Y-110706552D01*
X89210186Y-110789814D01*
X89293448Y-110891271D01*
X89322778Y-110927009D01*
X89406443Y-111083534D01*
X89457963Y-111253373D01*
X89475359Y-111430000D01*
X89457963Y-111606627D01*
X89406443Y-111776466D01*
X89322778Y-111932991D01*
X89293448Y-111968729D01*
X89210186Y-112070186D01*
X89108729Y-112153448D01*
X89072991Y-112182778D01*
X88916466Y-112266443D01*
X88746627Y-112317963D01*
X88680443Y-112324481D01*
X88614260Y-112331000D01*
X88525740Y-112331000D01*
X88459557Y-112324481D01*
X88393373Y-112317963D01*
X88223534Y-112266443D01*
X88067009Y-112182778D01*
X88031271Y-112153448D01*
X87929814Y-112070186D01*
X87846552Y-111968729D01*
X87817222Y-111932991D01*
X87733557Y-111776466D01*
X87682037Y-111606627D01*
X87664641Y-111430000D01*
X87682037Y-111253373D01*
X87733557Y-111083534D01*
X87817222Y-110927009D01*
X87846552Y-110891271D01*
X87929814Y-110789814D01*
X88031271Y-110706552D01*
X88067009Y-110677222D01*
X88223534Y-110593557D01*
X88393373Y-110542037D01*
X88459557Y-110535519D01*
X88525740Y-110529000D01*
X88614260Y-110529000D01*
X88680443Y-110535519D01*
X88680443Y-110535519D01*
G37*
G36*
X88680442Y-107995518D02*
G01*
X88746627Y-108002037D01*
X88916466Y-108053557D01*
X89072991Y-108137222D01*
X89108729Y-108166552D01*
X89210186Y-108249814D01*
X89293448Y-108351271D01*
X89322778Y-108387009D01*
X89406443Y-108543534D01*
X89457963Y-108713373D01*
X89475359Y-108890000D01*
X89457963Y-109066627D01*
X89406443Y-109236466D01*
X89322778Y-109392991D01*
X89293448Y-109428729D01*
X89210186Y-109530186D01*
X89108729Y-109613448D01*
X89072991Y-109642778D01*
X88916466Y-109726443D01*
X88746627Y-109777963D01*
X88680443Y-109784481D01*
X88614260Y-109791000D01*
X88525740Y-109791000D01*
X88459557Y-109784481D01*
X88393373Y-109777963D01*
X88223534Y-109726443D01*
X88067009Y-109642778D01*
X88031271Y-109613448D01*
X87929814Y-109530186D01*
X87846552Y-109428729D01*
X87817222Y-109392991D01*
X87733557Y-109236466D01*
X87682037Y-109066627D01*
X87664641Y-108890000D01*
X87682037Y-108713373D01*
X87733557Y-108543534D01*
X87817222Y-108387009D01*
X87846552Y-108351271D01*
X87929814Y-108249814D01*
X88031271Y-108166552D01*
X88067009Y-108137222D01*
X88223534Y-108053557D01*
X88393373Y-108002037D01*
X88459558Y-107995518D01*
X88525740Y-107989000D01*
X88614260Y-107989000D01*
X88680442Y-107995518D01*
X88680442Y-107995518D01*
G37*
G36*
X111540442Y-107995518D02*
G01*
X111606627Y-108002037D01*
X111776466Y-108053557D01*
X111932991Y-108137222D01*
X111968729Y-108166552D01*
X112070186Y-108249814D01*
X112153448Y-108351271D01*
X112182778Y-108387009D01*
X112266443Y-108543534D01*
X112317963Y-108713373D01*
X112335359Y-108890000D01*
X112317963Y-109066627D01*
X112266443Y-109236466D01*
X112182778Y-109392991D01*
X112153448Y-109428729D01*
X112070186Y-109530186D01*
X111968729Y-109613448D01*
X111932991Y-109642778D01*
X111776466Y-109726443D01*
X111606627Y-109777963D01*
X111540443Y-109784481D01*
X111474260Y-109791000D01*
X111385740Y-109791000D01*
X111319557Y-109784481D01*
X111253373Y-109777963D01*
X111083534Y-109726443D01*
X110927009Y-109642778D01*
X110891271Y-109613448D01*
X110789814Y-109530186D01*
X110706552Y-109428729D01*
X110677222Y-109392991D01*
X110593557Y-109236466D01*
X110542037Y-109066627D01*
X110524641Y-108890000D01*
X110542037Y-108713373D01*
X110593557Y-108543534D01*
X110677222Y-108387009D01*
X110706552Y-108351271D01*
X110789814Y-108249814D01*
X110891271Y-108166552D01*
X110927009Y-108137222D01*
X111083534Y-108053557D01*
X111253373Y-108002037D01*
X111319558Y-107995518D01*
X111385740Y-107989000D01*
X111474260Y-107989000D01*
X111540442Y-107995518D01*
X111540442Y-107995518D01*
G37*
G36*
X88680443Y-105455519D02*
G01*
X88746627Y-105462037D01*
X88916466Y-105513557D01*
X89072991Y-105597222D01*
X89104706Y-105623250D01*
X89210186Y-105709814D01*
X89293448Y-105811271D01*
X89322778Y-105847009D01*
X89406443Y-106003534D01*
X89457963Y-106173373D01*
X89475359Y-106350000D01*
X89457963Y-106526627D01*
X89406443Y-106696466D01*
X89322778Y-106852991D01*
X89293448Y-106888729D01*
X89210186Y-106990186D01*
X89108729Y-107073448D01*
X89072991Y-107102778D01*
X88916466Y-107186443D01*
X88746627Y-107237963D01*
X88680442Y-107244482D01*
X88614260Y-107251000D01*
X88525740Y-107251000D01*
X88459558Y-107244482D01*
X88393373Y-107237963D01*
X88223534Y-107186443D01*
X88067009Y-107102778D01*
X88031271Y-107073448D01*
X87929814Y-106990186D01*
X87846552Y-106888729D01*
X87817222Y-106852991D01*
X87733557Y-106696466D01*
X87682037Y-106526627D01*
X87664641Y-106350000D01*
X87682037Y-106173373D01*
X87733557Y-106003534D01*
X87817222Y-105847009D01*
X87846552Y-105811271D01*
X87929814Y-105709814D01*
X88035294Y-105623250D01*
X88067009Y-105597222D01*
X88223534Y-105513557D01*
X88393373Y-105462037D01*
X88459558Y-105455518D01*
X88525740Y-105449000D01*
X88614260Y-105449000D01*
X88680443Y-105455519D01*
X88680443Y-105455519D01*
G37*
G36*
X111540443Y-105455519D02*
G01*
X111606627Y-105462037D01*
X111776466Y-105513557D01*
X111932991Y-105597222D01*
X111964706Y-105623250D01*
X112070186Y-105709814D01*
X112153448Y-105811271D01*
X112182778Y-105847009D01*
X112266443Y-106003534D01*
X112317963Y-106173373D01*
X112335359Y-106350000D01*
X112317963Y-106526627D01*
X112266443Y-106696466D01*
X112182778Y-106852991D01*
X112153448Y-106888729D01*
X112070186Y-106990186D01*
X111968729Y-107073448D01*
X111932991Y-107102778D01*
X111776466Y-107186443D01*
X111606627Y-107237963D01*
X111540442Y-107244482D01*
X111474260Y-107251000D01*
X111385740Y-107251000D01*
X111319558Y-107244482D01*
X111253373Y-107237963D01*
X111083534Y-107186443D01*
X110927009Y-107102778D01*
X110891271Y-107073448D01*
X110789814Y-106990186D01*
X110706552Y-106888729D01*
X110677222Y-106852991D01*
X110593557Y-106696466D01*
X110542037Y-106526627D01*
X110524641Y-106350000D01*
X110542037Y-106173373D01*
X110593557Y-106003534D01*
X110677222Y-105847009D01*
X110706552Y-105811271D01*
X110789814Y-105709814D01*
X110895294Y-105623250D01*
X110927009Y-105597222D01*
X111083534Y-105513557D01*
X111253373Y-105462037D01*
X111319558Y-105455518D01*
X111385740Y-105449000D01*
X111474260Y-105449000D01*
X111540443Y-105455519D01*
X111540443Y-105455519D01*
G37*
G36*
X97204591Y-105383085D02*
G01*
X97238569Y-105393393D01*
X97269890Y-105410134D01*
X97297339Y-105432661D01*
X97319866Y-105460110D01*
X97336607Y-105491431D01*
X97346915Y-105525409D01*
X97351000Y-105566890D01*
X97351000Y-106168110D01*
X97346915Y-106209591D01*
X97336607Y-106243569D01*
X97319866Y-106274890D01*
X97297339Y-106302339D01*
X97269890Y-106324866D01*
X97238569Y-106341607D01*
X97204591Y-106351915D01*
X97163110Y-106356000D01*
X96486890Y-106356000D01*
X96445409Y-106351915D01*
X96411431Y-106341607D01*
X96380110Y-106324866D01*
X96352661Y-106302339D01*
X96330134Y-106274890D01*
X96313393Y-106243569D01*
X96303085Y-106209591D01*
X96299000Y-106168110D01*
X96299000Y-105566890D01*
X96303085Y-105525409D01*
X96313393Y-105491431D01*
X96330134Y-105460110D01*
X96352661Y-105432661D01*
X96380110Y-105410134D01*
X96411431Y-105393393D01*
X96445409Y-105383085D01*
X96486890Y-105379000D01*
X97163110Y-105379000D01*
X97204591Y-105383085D01*
X97204591Y-105383085D01*
G37*
G36*
X94324999Y-104074737D02*
G01*
X94334608Y-104077652D01*
X94343472Y-104082390D01*
X94355326Y-104092118D01*
X94365219Y-104102010D01*
X94385594Y-104115623D01*
X94408233Y-104124999D01*
X94432267Y-104129779D01*
X94456771Y-104129778D01*
X94480804Y-104124996D01*
X94503442Y-104115617D01*
X94529196Y-104096517D01*
X94529243Y-104096575D01*
X94530421Y-104095608D01*
X94532901Y-104093769D01*
X94533993Y-104092677D01*
X94546528Y-104082390D01*
X94555392Y-104077652D01*
X94565001Y-104074737D01*
X94581140Y-104073148D01*
X94958860Y-104073148D01*
X94974999Y-104074737D01*
X94984608Y-104077652D01*
X94993472Y-104082390D01*
X95001237Y-104088763D01*
X95007610Y-104096528D01*
X95012348Y-104105392D01*
X95015263Y-104115001D01*
X95016852Y-104131140D01*
X95016852Y-104758860D01*
X95015263Y-104774999D01*
X95012348Y-104784608D01*
X95007610Y-104793472D01*
X95001237Y-104801237D01*
X94993472Y-104807610D01*
X94984608Y-104812348D01*
X94974999Y-104815263D01*
X94958860Y-104816852D01*
X94581140Y-104816852D01*
X94565001Y-104815263D01*
X94555392Y-104812348D01*
X94546528Y-104807610D01*
X94533993Y-104797323D01*
X94532800Y-104796130D01*
X94513858Y-104780585D01*
X94492247Y-104769034D01*
X94468798Y-104761921D01*
X94444412Y-104759519D01*
X94420026Y-104761921D01*
X94396577Y-104769034D01*
X94374966Y-104780585D01*
X94355380Y-104798056D01*
X94342790Y-104808058D01*
X94333856Y-104812653D01*
X94323722Y-104815552D01*
X94309352Y-104816852D01*
X93611140Y-104816852D01*
X93595001Y-104815263D01*
X93585392Y-104812348D01*
X93576528Y-104807610D01*
X93568763Y-104801237D01*
X93562390Y-104793472D01*
X93557652Y-104784608D01*
X93554737Y-104774999D01*
X93553148Y-104758860D01*
X93553148Y-104131140D01*
X93554737Y-104115001D01*
X93557652Y-104105392D01*
X93562390Y-104096528D01*
X93568763Y-104088763D01*
X93576528Y-104082390D01*
X93585392Y-104077652D01*
X93595001Y-104074737D01*
X93611140Y-104073148D01*
X94308860Y-104073148D01*
X94324999Y-104074737D01*
X94324999Y-104074737D01*
G37*
G36*
X97204591Y-103808085D02*
G01*
X97238569Y-103818393D01*
X97269890Y-103835134D01*
X97297339Y-103857661D01*
X97319866Y-103885110D01*
X97336607Y-103916431D01*
X97346915Y-103950409D01*
X97351000Y-103991890D01*
X97351000Y-104593110D01*
X97346915Y-104634591D01*
X97336607Y-104668569D01*
X97319866Y-104699890D01*
X97297339Y-104727339D01*
X97269890Y-104749866D01*
X97238569Y-104766607D01*
X97204591Y-104776915D01*
X97163110Y-104781000D01*
X96486890Y-104781000D01*
X96445409Y-104776915D01*
X96411431Y-104766607D01*
X96380110Y-104749866D01*
X96352661Y-104727339D01*
X96330134Y-104699890D01*
X96313393Y-104668569D01*
X96303085Y-104634591D01*
X96299000Y-104593110D01*
X96299000Y-103991890D01*
X96303085Y-103950409D01*
X96313393Y-103916431D01*
X96330134Y-103885110D01*
X96352661Y-103857661D01*
X96380110Y-103835134D01*
X96411431Y-103818393D01*
X96445409Y-103808085D01*
X96486890Y-103804000D01*
X97163110Y-103804000D01*
X97204591Y-103808085D01*
X97204591Y-103808085D01*
G37*
G36*
X111540442Y-102915518D02*
G01*
X111606627Y-102922037D01*
X111776466Y-102973557D01*
X111932991Y-103057222D01*
X111968729Y-103086552D01*
X112070186Y-103169814D01*
X112153448Y-103271271D01*
X112182778Y-103307009D01*
X112266443Y-103463534D01*
X112317963Y-103633373D01*
X112335359Y-103810000D01*
X112317963Y-103986627D01*
X112266443Y-104156466D01*
X112182778Y-104312991D01*
X112153448Y-104348729D01*
X112070186Y-104450186D01*
X111968729Y-104533448D01*
X111932991Y-104562778D01*
X111776466Y-104646443D01*
X111606627Y-104697963D01*
X111540443Y-104704481D01*
X111474260Y-104711000D01*
X111385740Y-104711000D01*
X111319558Y-104704482D01*
X111253373Y-104697963D01*
X111083534Y-104646443D01*
X110927009Y-104562778D01*
X110891271Y-104533448D01*
X110789814Y-104450186D01*
X110706552Y-104348729D01*
X110677222Y-104312991D01*
X110593557Y-104156466D01*
X110542037Y-103986627D01*
X110524641Y-103810000D01*
X110542037Y-103633373D01*
X110593557Y-103463534D01*
X110677222Y-103307009D01*
X110706552Y-103271271D01*
X110789814Y-103169814D01*
X110891271Y-103086552D01*
X110927009Y-103057222D01*
X111083534Y-102973557D01*
X111253373Y-102922037D01*
X111319558Y-102915518D01*
X111385740Y-102909000D01*
X111474260Y-102909000D01*
X111540442Y-102915518D01*
X111540442Y-102915518D01*
G37*
G36*
X88680442Y-102915518D02*
G01*
X88746627Y-102922037D01*
X88916466Y-102973557D01*
X89072991Y-103057222D01*
X89108729Y-103086552D01*
X89210186Y-103169814D01*
X89293448Y-103271271D01*
X89322778Y-103307009D01*
X89406443Y-103463534D01*
X89457963Y-103633373D01*
X89475359Y-103810000D01*
X89457963Y-103986627D01*
X89406443Y-104156466D01*
X89322778Y-104312991D01*
X89293448Y-104348729D01*
X89210186Y-104450186D01*
X89108729Y-104533448D01*
X89072991Y-104562778D01*
X88916466Y-104646443D01*
X88746627Y-104697963D01*
X88680443Y-104704481D01*
X88614260Y-104711000D01*
X88525740Y-104711000D01*
X88459558Y-104704482D01*
X88393373Y-104697963D01*
X88223534Y-104646443D01*
X88067009Y-104562778D01*
X88031271Y-104533448D01*
X87929814Y-104450186D01*
X87846552Y-104348729D01*
X87817222Y-104312991D01*
X87733557Y-104156466D01*
X87682037Y-103986627D01*
X87664641Y-103810000D01*
X87682037Y-103633373D01*
X87733557Y-103463534D01*
X87817222Y-103307009D01*
X87846552Y-103271271D01*
X87929814Y-103169814D01*
X88031271Y-103086552D01*
X88067009Y-103057222D01*
X88223534Y-102973557D01*
X88393373Y-102922037D01*
X88459558Y-102915518D01*
X88525740Y-102909000D01*
X88614260Y-102909000D01*
X88680442Y-102915518D01*
X88680442Y-102915518D01*
G37*
G36*
X97204591Y-102208085D02*
G01*
X97238569Y-102218393D01*
X97269890Y-102235134D01*
X97297339Y-102257661D01*
X97319866Y-102285110D01*
X97336607Y-102316431D01*
X97346915Y-102350409D01*
X97351000Y-102391890D01*
X97351000Y-102993110D01*
X97346915Y-103034591D01*
X97336607Y-103068569D01*
X97319866Y-103099890D01*
X97297339Y-103127339D01*
X97269890Y-103149866D01*
X97238569Y-103166607D01*
X97204591Y-103176915D01*
X97163110Y-103181000D01*
X96486890Y-103181000D01*
X96445409Y-103176915D01*
X96411431Y-103166607D01*
X96380110Y-103149866D01*
X96352661Y-103127339D01*
X96330134Y-103099890D01*
X96313393Y-103068569D01*
X96303085Y-103034591D01*
X96299000Y-102993110D01*
X96299000Y-102391890D01*
X96303085Y-102350409D01*
X96313393Y-102316431D01*
X96330134Y-102285110D01*
X96352661Y-102257661D01*
X96380110Y-102235134D01*
X96411431Y-102218393D01*
X96445409Y-102208085D01*
X96486890Y-102204000D01*
X97163110Y-102204000D01*
X97204591Y-102208085D01*
X97204591Y-102208085D01*
G37*
G36*
X94664591Y-102208085D02*
G01*
X94698569Y-102218393D01*
X94729890Y-102235134D01*
X94757339Y-102257661D01*
X94779866Y-102285110D01*
X94796607Y-102316431D01*
X94806915Y-102350409D01*
X94811000Y-102391890D01*
X94811000Y-102993110D01*
X94806915Y-103034591D01*
X94796607Y-103068569D01*
X94779866Y-103099890D01*
X94757339Y-103127339D01*
X94729890Y-103149866D01*
X94698569Y-103166607D01*
X94664591Y-103176915D01*
X94623110Y-103181000D01*
X93946890Y-103181000D01*
X93905409Y-103176915D01*
X93871431Y-103166607D01*
X93840110Y-103149866D01*
X93812661Y-103127339D01*
X93790134Y-103099890D01*
X93773393Y-103068569D01*
X93763085Y-103034591D01*
X93759000Y-102993110D01*
X93759000Y-102391890D01*
X93763085Y-102350409D01*
X93773393Y-102316431D01*
X93790134Y-102285110D01*
X93812661Y-102257661D01*
X93840110Y-102235134D01*
X93871431Y-102218393D01*
X93905409Y-102208085D01*
X93946890Y-102204000D01*
X94623110Y-102204000D01*
X94664591Y-102208085D01*
X94664591Y-102208085D01*
G37*
G36*
X88680443Y-100375519D02*
G01*
X88746627Y-100382037D01*
X88916466Y-100433557D01*
X89072991Y-100517222D01*
X89084737Y-100526862D01*
X89210186Y-100629814D01*
X89276082Y-100710110D01*
X89322778Y-100767009D01*
X89406443Y-100923534D01*
X89457963Y-101093373D01*
X89475359Y-101270000D01*
X89457963Y-101446627D01*
X89406443Y-101616466D01*
X89322778Y-101772991D01*
X89293448Y-101808729D01*
X89210186Y-101910186D01*
X89108729Y-101993448D01*
X89072991Y-102022778D01*
X88916466Y-102106443D01*
X88746627Y-102157963D01*
X88680442Y-102164482D01*
X88614260Y-102171000D01*
X88525740Y-102171000D01*
X88459558Y-102164482D01*
X88393373Y-102157963D01*
X88223534Y-102106443D01*
X88067009Y-102022778D01*
X88031271Y-101993448D01*
X87929814Y-101910186D01*
X87846552Y-101808729D01*
X87817222Y-101772991D01*
X87733557Y-101616466D01*
X87682037Y-101446627D01*
X87664641Y-101270000D01*
X87682037Y-101093373D01*
X87733557Y-100923534D01*
X87817222Y-100767009D01*
X87863918Y-100710110D01*
X87929814Y-100629814D01*
X88055263Y-100526862D01*
X88067009Y-100517222D01*
X88223534Y-100433557D01*
X88393373Y-100382037D01*
X88459558Y-100375518D01*
X88525740Y-100369000D01*
X88614260Y-100369000D01*
X88680443Y-100375519D01*
X88680443Y-100375519D01*
G37*
G36*
X111540443Y-100375519D02*
G01*
X111606627Y-100382037D01*
X111776466Y-100433557D01*
X111932991Y-100517222D01*
X111944737Y-100526862D01*
X112070186Y-100629814D01*
X112136082Y-100710110D01*
X112182778Y-100767009D01*
X112266443Y-100923534D01*
X112317963Y-101093373D01*
X112335359Y-101270000D01*
X112317963Y-101446627D01*
X112266443Y-101616466D01*
X112182778Y-101772991D01*
X112153448Y-101808729D01*
X112070186Y-101910186D01*
X111968729Y-101993448D01*
X111932991Y-102022778D01*
X111776466Y-102106443D01*
X111606627Y-102157963D01*
X111540442Y-102164482D01*
X111474260Y-102171000D01*
X111385740Y-102171000D01*
X111319558Y-102164482D01*
X111253373Y-102157963D01*
X111083534Y-102106443D01*
X110927009Y-102022778D01*
X110891271Y-101993448D01*
X110789814Y-101910186D01*
X110706552Y-101808729D01*
X110677222Y-101772991D01*
X110593557Y-101616466D01*
X110542037Y-101446627D01*
X110524641Y-101270000D01*
X110542037Y-101093373D01*
X110593557Y-100923534D01*
X110677222Y-100767009D01*
X110723918Y-100710110D01*
X110789814Y-100629814D01*
X110915263Y-100526862D01*
X110927009Y-100517222D01*
X111083534Y-100433557D01*
X111253373Y-100382037D01*
X111319558Y-100375518D01*
X111385740Y-100369000D01*
X111474260Y-100369000D01*
X111540443Y-100375519D01*
X111540443Y-100375519D01*
G37*
G36*
X94664591Y-100633085D02*
G01*
X94698569Y-100643393D01*
X94729890Y-100660134D01*
X94757339Y-100682661D01*
X94779866Y-100710110D01*
X94796607Y-100741431D01*
X94806915Y-100775409D01*
X94811000Y-100816890D01*
X94811000Y-101418110D01*
X94806915Y-101459591D01*
X94796607Y-101493569D01*
X94779866Y-101524890D01*
X94757339Y-101552339D01*
X94729890Y-101574866D01*
X94698569Y-101591607D01*
X94664591Y-101601915D01*
X94623110Y-101606000D01*
X93946890Y-101606000D01*
X93905409Y-101601915D01*
X93871431Y-101591607D01*
X93840110Y-101574866D01*
X93812661Y-101552339D01*
X93790134Y-101524890D01*
X93773393Y-101493569D01*
X93763085Y-101459591D01*
X93759000Y-101418110D01*
X93759000Y-100816890D01*
X93763085Y-100775409D01*
X93773393Y-100741431D01*
X93790134Y-100710110D01*
X93812661Y-100682661D01*
X93840110Y-100660134D01*
X93871431Y-100643393D01*
X93905409Y-100633085D01*
X93946890Y-100629000D01*
X94623110Y-100629000D01*
X94664591Y-100633085D01*
X94664591Y-100633085D01*
G37*
G36*
X97204591Y-100633085D02*
G01*
X97238569Y-100643393D01*
X97269890Y-100660134D01*
X97297339Y-100682661D01*
X97319866Y-100710110D01*
X97336607Y-100741431D01*
X97346915Y-100775409D01*
X97351000Y-100816890D01*
X97351000Y-101418110D01*
X97346915Y-101459591D01*
X97336607Y-101493569D01*
X97319866Y-101524890D01*
X97297339Y-101552339D01*
X97269890Y-101574866D01*
X97238569Y-101591607D01*
X97204591Y-101601915D01*
X97163110Y-101606000D01*
X96486890Y-101606000D01*
X96445409Y-101601915D01*
X96411431Y-101591607D01*
X96380110Y-101574866D01*
X96352661Y-101552339D01*
X96330134Y-101524890D01*
X96313393Y-101493569D01*
X96303085Y-101459591D01*
X96299000Y-101418110D01*
X96299000Y-100816890D01*
X96303085Y-100775409D01*
X96313393Y-100741431D01*
X96330134Y-100710110D01*
X96352661Y-100682661D01*
X96380110Y-100660134D01*
X96411431Y-100643393D01*
X96445409Y-100633085D01*
X96486890Y-100629000D01*
X97163110Y-100629000D01*
X97204591Y-100633085D01*
X97204591Y-100633085D01*
G37*
G36*
X100584468Y-100403565D02*
G01*
X100623138Y-100415296D01*
X100658777Y-100434346D01*
X100690017Y-100459983D01*
X100715654Y-100491223D01*
X100734704Y-100526862D01*
X100746435Y-100565532D01*
X100751000Y-100611888D01*
X100751000Y-101263112D01*
X100746435Y-101309468D01*
X100734704Y-101348138D01*
X100715654Y-101383777D01*
X100690017Y-101415017D01*
X100658777Y-101440654D01*
X100623138Y-101459704D01*
X100584468Y-101471435D01*
X100538112Y-101476000D01*
X99461888Y-101476000D01*
X99415532Y-101471435D01*
X99376862Y-101459704D01*
X99341223Y-101440654D01*
X99309983Y-101415017D01*
X99284346Y-101383777D01*
X99265296Y-101348138D01*
X99253565Y-101309468D01*
X99249000Y-101263112D01*
X99249000Y-100611888D01*
X99253565Y-100565532D01*
X99265296Y-100526862D01*
X99284346Y-100491223D01*
X99309983Y-100459983D01*
X99341223Y-100434346D01*
X99376862Y-100415296D01*
X99415532Y-100403565D01*
X99461888Y-100399000D01*
X100538112Y-100399000D01*
X100584468Y-100403565D01*
X100584468Y-100403565D01*
G37*
G36*
X111540442Y-97835518D02*
G01*
X111606627Y-97842037D01*
X111776466Y-97893557D01*
X111932991Y-97977222D01*
X111968729Y-98006552D01*
X112070186Y-98089814D01*
X112153448Y-98191271D01*
X112182778Y-98227009D01*
X112266443Y-98383534D01*
X112317963Y-98553373D01*
X112335359Y-98730000D01*
X112317963Y-98906627D01*
X112266443Y-99076466D01*
X112182778Y-99232991D01*
X112153448Y-99268729D01*
X112070186Y-99370186D01*
X111991467Y-99434788D01*
X111932991Y-99482778D01*
X111776466Y-99566443D01*
X111606627Y-99617963D01*
X111540442Y-99624482D01*
X111474260Y-99631000D01*
X111385740Y-99631000D01*
X111319557Y-99624481D01*
X111253373Y-99617963D01*
X111083534Y-99566443D01*
X110927009Y-99482778D01*
X110868533Y-99434788D01*
X110789814Y-99370186D01*
X110706552Y-99268729D01*
X110677222Y-99232991D01*
X110593557Y-99076466D01*
X110542037Y-98906627D01*
X110524641Y-98730000D01*
X110542037Y-98553373D01*
X110593557Y-98383534D01*
X110677222Y-98227009D01*
X110706552Y-98191271D01*
X110789814Y-98089814D01*
X110891271Y-98006552D01*
X110927009Y-97977222D01*
X111083534Y-97893557D01*
X111253373Y-97842037D01*
X111319558Y-97835518D01*
X111385740Y-97829000D01*
X111474260Y-97829000D01*
X111540442Y-97835518D01*
X111540442Y-97835518D01*
G37*
G36*
X88680442Y-97835518D02*
G01*
X88746627Y-97842037D01*
X88916466Y-97893557D01*
X89072991Y-97977222D01*
X89108729Y-98006552D01*
X89210186Y-98089814D01*
X89293448Y-98191271D01*
X89322778Y-98227009D01*
X89406443Y-98383534D01*
X89457963Y-98553373D01*
X89475359Y-98730000D01*
X89457963Y-98906627D01*
X89406443Y-99076466D01*
X89322778Y-99232991D01*
X89293448Y-99268729D01*
X89210186Y-99370186D01*
X89131467Y-99434788D01*
X89072991Y-99482778D01*
X88916466Y-99566443D01*
X88746627Y-99617963D01*
X88680442Y-99624482D01*
X88614260Y-99631000D01*
X88525740Y-99631000D01*
X88459557Y-99624481D01*
X88393373Y-99617963D01*
X88223534Y-99566443D01*
X88067009Y-99482778D01*
X88008533Y-99434788D01*
X87929814Y-99370186D01*
X87846552Y-99268729D01*
X87817222Y-99232991D01*
X87733557Y-99076466D01*
X87682037Y-98906627D01*
X87664641Y-98730000D01*
X87682037Y-98553373D01*
X87733557Y-98383534D01*
X87817222Y-98227009D01*
X87846552Y-98191271D01*
X87929814Y-98089814D01*
X88031271Y-98006552D01*
X88067009Y-97977222D01*
X88223534Y-97893557D01*
X88393373Y-97842037D01*
X88459558Y-97835518D01*
X88525740Y-97829000D01*
X88614260Y-97829000D01*
X88680442Y-97835518D01*
X88680442Y-97835518D01*
G37*
G36*
X100584468Y-98528565D02*
G01*
X100623138Y-98540296D01*
X100658777Y-98559346D01*
X100690017Y-98584983D01*
X100715654Y-98616223D01*
X100734704Y-98651862D01*
X100746435Y-98690532D01*
X100751000Y-98736888D01*
X100751000Y-99388112D01*
X100746435Y-99434468D01*
X100734704Y-99473138D01*
X100715654Y-99508777D01*
X100690017Y-99540017D01*
X100658777Y-99565654D01*
X100623138Y-99584704D01*
X100584468Y-99596435D01*
X100538112Y-99601000D01*
X99461888Y-99601000D01*
X99415532Y-99596435D01*
X99376862Y-99584704D01*
X99341223Y-99565654D01*
X99309983Y-99540017D01*
X99284346Y-99508777D01*
X99265296Y-99473138D01*
X99253565Y-99434468D01*
X99249000Y-99388112D01*
X99249000Y-98736888D01*
X99253565Y-98690532D01*
X99265296Y-98651862D01*
X99284346Y-98616223D01*
X99309983Y-98584983D01*
X99341223Y-98559346D01*
X99376862Y-98540296D01*
X99415532Y-98528565D01*
X99461888Y-98524000D01*
X100538112Y-98524000D01*
X100584468Y-98528565D01*
X100584468Y-98528565D01*
G37*
G36*
X111540443Y-95295519D02*
G01*
X111606627Y-95302037D01*
X111776466Y-95353557D01*
X111932991Y-95437222D01*
X111968729Y-95466552D01*
X112070186Y-95549814D01*
X112153448Y-95651271D01*
X112182778Y-95687009D01*
X112266443Y-95843534D01*
X112317963Y-96013373D01*
X112335359Y-96190000D01*
X112317963Y-96366627D01*
X112266443Y-96536466D01*
X112182778Y-96692991D01*
X112153448Y-96728729D01*
X112070186Y-96830186D01*
X111968729Y-96913448D01*
X111932991Y-96942778D01*
X111776466Y-97026443D01*
X111606627Y-97077963D01*
X111540443Y-97084481D01*
X111474260Y-97091000D01*
X111385740Y-97091000D01*
X111319557Y-97084481D01*
X111253373Y-97077963D01*
X111083534Y-97026443D01*
X110927009Y-96942778D01*
X110891271Y-96913448D01*
X110789814Y-96830186D01*
X110706552Y-96728729D01*
X110677222Y-96692991D01*
X110593557Y-96536466D01*
X110542037Y-96366627D01*
X110524641Y-96190000D01*
X110542037Y-96013373D01*
X110593557Y-95843534D01*
X110677222Y-95687009D01*
X110706552Y-95651271D01*
X110789814Y-95549814D01*
X110891271Y-95466552D01*
X110927009Y-95437222D01*
X111083534Y-95353557D01*
X111253373Y-95302037D01*
X111319557Y-95295519D01*
X111385740Y-95289000D01*
X111474260Y-95289000D01*
X111540443Y-95295519D01*
X111540443Y-95295519D01*
G37*
G36*
X88680443Y-95295519D02*
G01*
X88746627Y-95302037D01*
X88916466Y-95353557D01*
X89072991Y-95437222D01*
X89108729Y-95466552D01*
X89210186Y-95549814D01*
X89293448Y-95651271D01*
X89322778Y-95687009D01*
X89406443Y-95843534D01*
X89457963Y-96013373D01*
X89475359Y-96190000D01*
X89457963Y-96366627D01*
X89406443Y-96536466D01*
X89322778Y-96692991D01*
X89293448Y-96728729D01*
X89210186Y-96830186D01*
X89108729Y-96913448D01*
X89072991Y-96942778D01*
X88916466Y-97026443D01*
X88746627Y-97077963D01*
X88680443Y-97084481D01*
X88614260Y-97091000D01*
X88525740Y-97091000D01*
X88459557Y-97084481D01*
X88393373Y-97077963D01*
X88223534Y-97026443D01*
X88067009Y-96942778D01*
X88031271Y-96913448D01*
X87929814Y-96830186D01*
X87846552Y-96728729D01*
X87817222Y-96692991D01*
X87733557Y-96536466D01*
X87682037Y-96366627D01*
X87664641Y-96190000D01*
X87682037Y-96013373D01*
X87733557Y-95843534D01*
X87817222Y-95687009D01*
X87846552Y-95651271D01*
X87929814Y-95549814D01*
X88031271Y-95466552D01*
X88067009Y-95437222D01*
X88223534Y-95353557D01*
X88393373Y-95302037D01*
X88459557Y-95295519D01*
X88525740Y-95289000D01*
X88614260Y-95289000D01*
X88680443Y-95295519D01*
X88680443Y-95295519D01*
G37*
G36*
X89471000Y-94551000D02*
G01*
X87669000Y-94551000D01*
X87669000Y-92749000D01*
X89471000Y-92749000D01*
X89471000Y-94551000D01*
X89471000Y-94551000D01*
G37*
G36*
X111540442Y-92755518D02*
G01*
X111606627Y-92762037D01*
X111776466Y-92813557D01*
X111932991Y-92897222D01*
X111968729Y-92926552D01*
X112070186Y-93009814D01*
X112153448Y-93111271D01*
X112182778Y-93147009D01*
X112266443Y-93303534D01*
X112317963Y-93473373D01*
X112335359Y-93650000D01*
X112317963Y-93826627D01*
X112266443Y-93996466D01*
X112182778Y-94152991D01*
X112153448Y-94188729D01*
X112070186Y-94290186D01*
X111968729Y-94373448D01*
X111932991Y-94402778D01*
X111776466Y-94486443D01*
X111606627Y-94537963D01*
X111540442Y-94544482D01*
X111474260Y-94551000D01*
X111385740Y-94551000D01*
X111319558Y-94544482D01*
X111253373Y-94537963D01*
X111083534Y-94486443D01*
X110927009Y-94402778D01*
X110891271Y-94373448D01*
X110789814Y-94290186D01*
X110706552Y-94188729D01*
X110677222Y-94152991D01*
X110593557Y-93996466D01*
X110542037Y-93826627D01*
X110524641Y-93650000D01*
X110542037Y-93473373D01*
X110593557Y-93303534D01*
X110677222Y-93147009D01*
X110706552Y-93111271D01*
X110789814Y-93009814D01*
X110891271Y-92926552D01*
X110927009Y-92897222D01*
X111083534Y-92813557D01*
X111253373Y-92762037D01*
X111319558Y-92755518D01*
X111385740Y-92749000D01*
X111474260Y-92749000D01*
X111540442Y-92755518D01*
X111540442Y-92755518D01*
G37*
G36*
X88680442Y-90215518D02*
G01*
X88746627Y-90222037D01*
X88916466Y-90273557D01*
X89072991Y-90357222D01*
X89108729Y-90386552D01*
X89210186Y-90469814D01*
X89293448Y-90571271D01*
X89322778Y-90607009D01*
X89406443Y-90763534D01*
X89457963Y-90933373D01*
X89475359Y-91110000D01*
X89457963Y-91286627D01*
X89406443Y-91456466D01*
X89322778Y-91612991D01*
X89293448Y-91648729D01*
X89210186Y-91750186D01*
X89108729Y-91833448D01*
X89072991Y-91862778D01*
X88916466Y-91946443D01*
X88746627Y-91997963D01*
X88680442Y-92004482D01*
X88614260Y-92011000D01*
X88525740Y-92011000D01*
X88459558Y-92004482D01*
X88393373Y-91997963D01*
X88223534Y-91946443D01*
X88067009Y-91862778D01*
X88031271Y-91833448D01*
X87929814Y-91750186D01*
X87846552Y-91648729D01*
X87817222Y-91612991D01*
X87733557Y-91456466D01*
X87682037Y-91286627D01*
X87664641Y-91110000D01*
X87682037Y-90933373D01*
X87733557Y-90763534D01*
X87817222Y-90607009D01*
X87846552Y-90571271D01*
X87929814Y-90469814D01*
X88031271Y-90386552D01*
X88067009Y-90357222D01*
X88223534Y-90273557D01*
X88393373Y-90222037D01*
X88459558Y-90215518D01*
X88525740Y-90209000D01*
X88614260Y-90209000D01*
X88680442Y-90215518D01*
X88680442Y-90215518D01*
G37*
G36*
X111540442Y-90215518D02*
G01*
X111606627Y-90222037D01*
X111776466Y-90273557D01*
X111932991Y-90357222D01*
X111968729Y-90386552D01*
X112070186Y-90469814D01*
X112153448Y-90571271D01*
X112182778Y-90607009D01*
X112266443Y-90763534D01*
X112317963Y-90933373D01*
X112335359Y-91110000D01*
X112317963Y-91286627D01*
X112266443Y-91456466D01*
X112182778Y-91612991D01*
X112153448Y-91648729D01*
X112070186Y-91750186D01*
X111968729Y-91833448D01*
X111932991Y-91862778D01*
X111776466Y-91946443D01*
X111606627Y-91997963D01*
X111540442Y-92004482D01*
X111474260Y-92011000D01*
X111385740Y-92011000D01*
X111319558Y-92004482D01*
X111253373Y-91997963D01*
X111083534Y-91946443D01*
X110927009Y-91862778D01*
X110891271Y-91833448D01*
X110789814Y-91750186D01*
X110706552Y-91648729D01*
X110677222Y-91612991D01*
X110593557Y-91456466D01*
X110542037Y-91286627D01*
X110524641Y-91110000D01*
X110542037Y-90933373D01*
X110593557Y-90763534D01*
X110677222Y-90607009D01*
X110706552Y-90571271D01*
X110789814Y-90469814D01*
X110891271Y-90386552D01*
X110927009Y-90357222D01*
X111083534Y-90273557D01*
X111253373Y-90222037D01*
X111319558Y-90215518D01*
X111385740Y-90209000D01*
X111474260Y-90209000D01*
X111540442Y-90215518D01*
X111540442Y-90215518D01*
G37*
G36*
X89471000Y-89471000D02*
G01*
X87669000Y-89471000D01*
X87669000Y-87669000D01*
X89471000Y-87669000D01*
X89471000Y-89471000D01*
X89471000Y-89471000D01*
G37*
G36*
X112331000Y-89471000D02*
G01*
X110529000Y-89471000D01*
X110529000Y-87669000D01*
X112331000Y-87669000D01*
X112331000Y-89471000D01*
X112331000Y-89471000D01*
G37*
M02*
