M48
; DRILL file {KiCad (5.1.0)-1} date 3/29/2019 2:28:55 AM
; FORMAT={-:-/ absolute / inch / decimal}
; #@! TF.CreationDate,2019-03-29T02:28:55-07:00
; #@! TF.GenerationSoftware,Kicad,Pcbnew,(5.1.0)-1
FMAT,2
INCH
T1C0.0157
T2C0.0197
T3C0.0394
%
G90
G05
T1
X3.637Y-4.687
X3.637Y-4.487
X3.662Y-3.762
X3.662Y-3.812
X3.662Y-3.862
X3.662Y-3.912
X3.662Y-3.962
X3.662Y-4.012
X3.662Y-4.062
X3.662Y-4.112
X3.662Y-4.162
X3.662Y-4.212
X3.662Y-4.437
X3.712Y-4.262
X3.762Y-4.262
X3.812Y-4.262
X3.862Y-4.262
X3.862Y-4.437
X3.912Y-4.112
X3.912Y-4.162
X3.912Y-4.212
X3.912Y-4.437
X3.962Y-4.437
X4.037Y-4.437
X4.1656Y-4.187
X4.187Y-4.537
X4.187Y-4.637
X4.212Y-3.612
X4.212Y-3.662
X4.212Y-3.712
X4.212Y-3.762
X4.212Y-3.812
X4.212Y-3.862
X4.212Y-3.912
X4.212Y-3.962
X4.212Y-4.012
X4.212Y-4.062
X4.212Y-4.112
X4.212Y-4.162
X4.212Y-4.212
X4.212Y-4.262
T2
X3.662Y-3.512
X3.662Y-3.612
X3.712Y-3.512
X3.837Y-4.587
X3.887Y-4.587
X3.937Y-4.017
X3.937Y-4.587
X4.037Y-4.587
X4.162Y-3.512
X4.212Y-3.512
T3
X3.487Y-3.487
X3.487Y-3.587
X3.487Y-3.687
X3.487Y-3.787
X3.487Y-3.887
X3.487Y-3.987
X3.487Y-4.087
X3.487Y-4.187
X3.487Y-4.287
X3.487Y-4.387
X3.487Y-4.487
X3.487Y-4.587
X3.487Y-4.687
X4.387Y-3.487
X4.387Y-3.587
X4.387Y-3.687
X4.387Y-3.787
X4.387Y-3.887
X4.387Y-3.987
X4.387Y-4.087
X4.387Y-4.187
X4.387Y-4.287
X4.387Y-4.387
X4.387Y-4.487
X4.387Y-4.587
X4.387Y-4.687
T0
M30
