G04 #@! TF.GenerationSoftware,KiCad,Pcbnew,(5.1.0)-1*
G04 #@! TF.CreationDate,2019-03-29T02:28:53-07:00*
G04 #@! TF.ProjectId,e73-breakout,6537332d-6272-4656-916b-6f75742e6b69,rev?*
G04 #@! TF.SameCoordinates,Original*
G04 #@! TF.FileFunction,Legend,Bot*
G04 #@! TF.FilePolarity,Positive*
%FSLAX46Y46*%
G04 Gerber Fmt 4.6, Leading zero omitted, Abs format (unit mm)*
G04 Created by KiCad (PCBNEW (5.1.0)-1) date 2019-03-29 02:28:53*
%MOMM*%
%LPD*%
G04 APERTURE LIST*
%ADD10C,0.150000*%
%ADD11C,0.120000*%
G04 APERTURE END LIST*
D10*
X105883214Y-92166666D02*
X105883214Y-92500000D01*
X106537976Y-92642857D02*
X106537976Y-92166666D01*
X105287976Y-92166666D01*
X105287976Y-92642857D01*
X105287976Y-92976190D02*
X105287976Y-93642857D01*
X106537976Y-93214285D01*
X105287976Y-93928571D02*
X105287976Y-94547619D01*
X105764166Y-94214285D01*
X105764166Y-94357142D01*
X105823690Y-94452380D01*
X105883214Y-94500000D01*
X106002261Y-94547619D01*
X106299880Y-94547619D01*
X106418928Y-94500000D01*
X106478452Y-94452380D01*
X106537976Y-94357142D01*
X106537976Y-94071428D01*
X106478452Y-93976190D01*
X106418928Y-93928571D01*
X106061785Y-94976190D02*
X106061785Y-95738095D01*
X105407023Y-96166666D02*
X105347500Y-96214285D01*
X105287976Y-96309523D01*
X105287976Y-96547619D01*
X105347500Y-96642857D01*
X105407023Y-96690476D01*
X105526071Y-96738095D01*
X105645119Y-96738095D01*
X105823690Y-96690476D01*
X106537976Y-96119047D01*
X106537976Y-96738095D01*
X105347500Y-97690476D02*
X105287976Y-97595238D01*
X105287976Y-97452380D01*
X105347500Y-97309523D01*
X105466547Y-97214285D01*
X105585595Y-97166666D01*
X105823690Y-97119047D01*
X106002261Y-97119047D01*
X106240357Y-97166666D01*
X106359404Y-97214285D01*
X106478452Y-97309523D01*
X106537976Y-97452380D01*
X106537976Y-97547619D01*
X106478452Y-97690476D01*
X106418928Y-97738095D01*
X106002261Y-97738095D01*
X106002261Y-97547619D01*
X105704642Y-98595238D02*
X106537976Y-98595238D01*
X105228452Y-98357142D02*
X106121309Y-98119047D01*
X106121309Y-98738095D01*
X106537976Y-99119047D02*
X105287976Y-99119047D01*
X106180833Y-99452380D01*
X105287976Y-99785714D01*
X106537976Y-99785714D01*
X105287976Y-100452380D02*
X105287976Y-100547619D01*
X105347500Y-100642857D01*
X105407023Y-100690476D01*
X105526071Y-100738095D01*
X105764166Y-100785714D01*
X106061785Y-100785714D01*
X106299880Y-100738095D01*
X106418928Y-100690476D01*
X106478452Y-100642857D01*
X106537976Y-100547619D01*
X106537976Y-100452380D01*
X106478452Y-100357142D01*
X106418928Y-100309523D01*
X106299880Y-100261904D01*
X106061785Y-100214285D01*
X105764166Y-100214285D01*
X105526071Y-100261904D01*
X105407023Y-100309523D01*
X105347500Y-100357142D01*
X105287976Y-100452380D01*
X105704642Y-101642857D02*
X106537976Y-101642857D01*
X105228452Y-101404761D02*
X106121309Y-101166666D01*
X106121309Y-101785714D01*
X106478452Y-102119047D02*
X106537976Y-102261904D01*
X106537976Y-102500000D01*
X106478452Y-102595238D01*
X106418928Y-102642857D01*
X106299880Y-102690476D01*
X106180833Y-102690476D01*
X106061785Y-102642857D01*
X106002261Y-102595238D01*
X105942738Y-102500000D01*
X105883214Y-102309523D01*
X105823690Y-102214285D01*
X105764166Y-102166666D01*
X105645119Y-102119047D01*
X105526071Y-102119047D01*
X105407023Y-102166666D01*
X105347500Y-102214285D01*
X105287976Y-102309523D01*
X105287976Y-102547619D01*
X105347500Y-102690476D01*
X106537976Y-103642857D02*
X106537976Y-103071428D01*
X106537976Y-103357142D02*
X105287976Y-103357142D01*
X105466547Y-103261904D01*
X105585595Y-103166666D01*
X105645119Y-103071428D01*
X107014166Y-104357142D02*
X106954642Y-104309523D01*
X106776071Y-104214285D01*
X106657023Y-104166666D01*
X106478452Y-104119047D01*
X106180833Y-104071428D01*
X105942738Y-104071428D01*
X105645119Y-104119047D01*
X105466547Y-104166666D01*
X105347500Y-104214285D01*
X105168928Y-104309523D01*
X105109404Y-104357142D01*
X106180833Y-104690476D02*
X106180833Y-105166666D01*
X106537976Y-104595238D02*
X105287976Y-104928571D01*
X106537976Y-105261904D01*
X105228452Y-106309523D02*
X106835595Y-105452380D01*
X105883214Y-106976190D02*
X105942738Y-107119047D01*
X106002261Y-107166666D01*
X106121309Y-107214285D01*
X106299880Y-107214285D01*
X106418928Y-107166666D01*
X106478452Y-107119047D01*
X106537976Y-107023809D01*
X106537976Y-106642857D01*
X105287976Y-106642857D01*
X105287976Y-106976190D01*
X105347500Y-107071428D01*
X105407023Y-107119047D01*
X105526071Y-107166666D01*
X105645119Y-107166666D01*
X105764166Y-107119047D01*
X105823690Y-107071428D01*
X105883214Y-106976190D01*
X105883214Y-106642857D01*
X107014166Y-107547619D02*
X106954642Y-107595238D01*
X106776071Y-107690476D01*
X106657023Y-107738095D01*
X106478452Y-107785714D01*
X106180833Y-107833333D01*
X105942738Y-107833333D01*
X105645119Y-107785714D01*
X105466547Y-107738095D01*
X105347500Y-107690476D01*
X105168928Y-107595238D01*
X105109404Y-107547619D01*
X107908214Y-96047619D02*
X107967738Y-96190476D01*
X108027261Y-96238095D01*
X108146309Y-96285714D01*
X108324880Y-96285714D01*
X108443928Y-96238095D01*
X108503452Y-96190476D01*
X108562976Y-96095238D01*
X108562976Y-95714285D01*
X107312976Y-95714285D01*
X107312976Y-96047619D01*
X107372500Y-96142857D01*
X107432023Y-96190476D01*
X107551071Y-96238095D01*
X107670119Y-96238095D01*
X107789166Y-96190476D01*
X107848690Y-96142857D01*
X107908214Y-96047619D01*
X107908214Y-95714285D01*
X108562976Y-96714285D02*
X107729642Y-96714285D01*
X107967738Y-96714285D02*
X107848690Y-96761904D01*
X107789166Y-96809523D01*
X107729642Y-96904761D01*
X107729642Y-97000000D01*
X108503452Y-97714285D02*
X108562976Y-97619047D01*
X108562976Y-97428571D01*
X108503452Y-97333333D01*
X108384404Y-97285714D01*
X107908214Y-97285714D01*
X107789166Y-97333333D01*
X107729642Y-97428571D01*
X107729642Y-97619047D01*
X107789166Y-97714285D01*
X107908214Y-97761904D01*
X108027261Y-97761904D01*
X108146309Y-97285714D01*
X108562976Y-98619047D02*
X107908214Y-98619047D01*
X107789166Y-98571428D01*
X107729642Y-98476190D01*
X107729642Y-98285714D01*
X107789166Y-98190476D01*
X108503452Y-98619047D02*
X108562976Y-98523809D01*
X108562976Y-98285714D01*
X108503452Y-98190476D01*
X108384404Y-98142857D01*
X108265357Y-98142857D01*
X108146309Y-98190476D01*
X108086785Y-98285714D01*
X108086785Y-98523809D01*
X108027261Y-98619047D01*
X108562976Y-99095238D02*
X107312976Y-99095238D01*
X108086785Y-99190476D02*
X108562976Y-99476190D01*
X107729642Y-99476190D02*
X108205833Y-99095238D01*
X108562976Y-100047619D02*
X108503452Y-99952380D01*
X108443928Y-99904761D01*
X108324880Y-99857142D01*
X107967738Y-99857142D01*
X107848690Y-99904761D01*
X107789166Y-99952380D01*
X107729642Y-100047619D01*
X107729642Y-100190476D01*
X107789166Y-100285714D01*
X107848690Y-100333333D01*
X107967738Y-100380952D01*
X108324880Y-100380952D01*
X108443928Y-100333333D01*
X108503452Y-100285714D01*
X108562976Y-100190476D01*
X108562976Y-100047619D01*
X107729642Y-101238095D02*
X108562976Y-101238095D01*
X107729642Y-100809523D02*
X108384404Y-100809523D01*
X108503452Y-100857142D01*
X108562976Y-100952380D01*
X108562976Y-101095238D01*
X108503452Y-101190476D01*
X108443928Y-101238095D01*
X107729642Y-101571428D02*
X107729642Y-101952380D01*
X107312976Y-101714285D02*
X108384404Y-101714285D01*
X108503452Y-101761904D01*
X108562976Y-101857142D01*
X108562976Y-101952380D01*
X107729642Y-102952380D02*
X108562976Y-103190476D01*
X107729642Y-103428571D01*
X108562976Y-104333333D02*
X108562976Y-103761904D01*
X108562976Y-104047619D02*
X107312976Y-104047619D01*
X107491547Y-103952380D01*
X107610595Y-103857142D01*
X107670119Y-103761904D01*
D11*
X100710000Y-100258578D02*
X100710000Y-99741422D01*
X99290000Y-100258578D02*
X99290000Y-99741422D01*
X94795000Y-102067779D02*
X94795000Y-101742221D01*
X93775000Y-102067779D02*
X93775000Y-101742221D01*
X107782779Y-119560000D02*
X107457221Y-119560000D01*
X107782779Y-118540000D02*
X107457221Y-118540000D01*
X107782779Y-116000000D02*
X107457221Y-116000000D01*
X107782779Y-117020000D02*
X107457221Y-117020000D01*
X97335000Y-105242779D02*
X97335000Y-104917221D01*
X96315000Y-105242779D02*
X96315000Y-104917221D01*
X96315000Y-102067779D02*
X96315000Y-101742221D01*
X97335000Y-102067779D02*
X97335000Y-101742221D01*
X112760000Y-87240000D02*
X111430000Y-87240000D01*
X112760000Y-88570000D02*
X112760000Y-87240000D01*
X112760000Y-89840000D02*
X110100000Y-89840000D01*
X110100000Y-89840000D02*
X110100000Y-120380000D01*
X112760000Y-89840000D02*
X112760000Y-120380000D01*
X112760000Y-120380000D02*
X110100000Y-120380000D01*
X93415000Y-114790000D02*
X92615000Y-114790000D01*
X93415000Y-118230000D02*
X92615000Y-118230000D01*
X107457221Y-114480000D02*
X107782779Y-114480000D01*
X107457221Y-113460000D02*
X107782779Y-113460000D01*
X89900000Y-92440000D02*
X87240000Y-92440000D01*
X89900000Y-89840000D02*
X89900000Y-92440000D01*
X87240000Y-89840000D02*
X87240000Y-92440000D01*
X89900000Y-89840000D02*
X87240000Y-89840000D01*
X89900000Y-88570000D02*
X89900000Y-87240000D01*
X89900000Y-87240000D02*
X88570000Y-87240000D01*
X89900000Y-120380000D02*
X87240000Y-120380000D01*
X89900000Y-94920000D02*
X89900000Y-120380000D01*
X87240000Y-94920000D02*
X87240000Y-120380000D01*
X89900000Y-94920000D02*
X87240000Y-94920000D01*
X89900000Y-93650000D02*
X89900000Y-92320000D01*
X89900000Y-92320000D02*
X88570000Y-92320000D01*
X99837221Y-114480000D02*
X100162779Y-114480000D01*
X99837221Y-113460000D02*
X100162779Y-113460000D01*
D10*
X96750000Y-93150000D02*
X96500000Y-92900000D01*
X96750000Y-94150000D02*
X96750000Y-93150000D01*
X96500000Y-94400000D02*
X96750000Y-94150000D01*
X96500000Y-92900000D02*
X96500000Y-94400000D01*
X103750000Y-93650000D02*
X103250000Y-94150000D01*
X103250000Y-93150000D02*
X103750000Y-93650000D01*
X103250000Y-94150000D02*
X103250000Y-93150000D01*
X101750000Y-94400000D02*
X101500000Y-94150000D01*
X102750000Y-94400000D02*
X101750000Y-94400000D01*
X103000000Y-94150000D02*
X102750000Y-94400000D01*
X103000000Y-93150000D02*
X103000000Y-94150000D01*
X102750000Y-92900000D02*
X103000000Y-93150000D01*
X101750000Y-92900000D02*
X102750000Y-92900000D01*
X101500000Y-93150000D02*
X101750000Y-92900000D01*
X100250000Y-92900000D02*
X100000000Y-93150000D01*
X101250000Y-92900000D02*
X100250000Y-92900000D01*
X101500000Y-93150000D02*
X101250000Y-92900000D01*
X101500000Y-94150000D02*
X101500000Y-93150000D01*
X101250000Y-94400000D02*
X101500000Y-94150000D01*
X100250000Y-94400000D02*
X101250000Y-94400000D01*
X100000000Y-94150000D02*
X100250000Y-94400000D01*
X98750000Y-94400000D02*
X98500000Y-94150000D01*
X99750000Y-94400000D02*
X98750000Y-94400000D01*
X100000000Y-94150000D02*
X99750000Y-94400000D01*
X100000000Y-93150000D02*
X100000000Y-94150000D01*
X99750000Y-92900000D02*
X100000000Y-93150000D01*
X98750000Y-92900000D02*
X99750000Y-92900000D01*
X97250000Y-92900000D02*
X97000000Y-93150000D01*
X98250000Y-92900000D02*
X97250000Y-92900000D01*
X98750000Y-92900000D02*
X98500000Y-93150000D01*
X98250000Y-94400000D02*
X98500000Y-94150000D01*
X97250000Y-94400000D02*
X98250000Y-94400000D01*
X97000000Y-94150000D02*
X97250000Y-94400000D01*
X97000000Y-93150000D02*
X97000000Y-94150000D01*
X98500000Y-93150000D02*
X98500000Y-94150000D01*
X98500000Y-93150000D02*
X98250000Y-92900000D01*
X100357142Y-102373333D02*
X100404761Y-102325714D01*
X100452380Y-102182857D01*
X100452380Y-102087619D01*
X100404761Y-101944761D01*
X100309523Y-101849523D01*
X100214285Y-101801904D01*
X100023809Y-101754285D01*
X99880952Y-101754285D01*
X99690476Y-101801904D01*
X99595238Y-101849523D01*
X99500000Y-101944761D01*
X99452380Y-102087619D01*
X99452380Y-102182857D01*
X99500000Y-102325714D01*
X99547619Y-102373333D01*
X100452380Y-103325714D02*
X100452380Y-102754285D01*
X100452380Y-103040000D02*
X99452380Y-103040000D01*
X99595238Y-102944761D01*
X99690476Y-102849523D01*
X99738095Y-102754285D01*
X94642142Y-99198333D02*
X94689761Y-99150714D01*
X94737380Y-99007857D01*
X94737380Y-98912619D01*
X94689761Y-98769761D01*
X94594523Y-98674523D01*
X94499285Y-98626904D01*
X94308809Y-98579285D01*
X94165952Y-98579285D01*
X93975476Y-98626904D01*
X93880238Y-98674523D01*
X93785000Y-98769761D01*
X93737380Y-98912619D01*
X93737380Y-99007857D01*
X93785000Y-99150714D01*
X93832619Y-99198333D01*
X93832619Y-99579285D02*
X93785000Y-99626904D01*
X93737380Y-99722142D01*
X93737380Y-99960238D01*
X93785000Y-100055476D01*
X93832619Y-100103095D01*
X93927857Y-100150714D01*
X94023095Y-100150714D01*
X94165952Y-100103095D01*
X94737380Y-99531666D01*
X94737380Y-100150714D01*
X105246666Y-119407142D02*
X105294285Y-119454761D01*
X105437142Y-119502380D01*
X105532380Y-119502380D01*
X105675238Y-119454761D01*
X105770476Y-119359523D01*
X105818095Y-119264285D01*
X105865714Y-119073809D01*
X105865714Y-118930952D01*
X105818095Y-118740476D01*
X105770476Y-118645238D01*
X105675238Y-118550000D01*
X105532380Y-118502380D01*
X105437142Y-118502380D01*
X105294285Y-118550000D01*
X105246666Y-118597619D01*
X104389523Y-118835714D02*
X104389523Y-119502380D01*
X104627619Y-118454761D02*
X104865714Y-119169047D01*
X104246666Y-119169047D01*
X105246666Y-116867142D02*
X105294285Y-116914761D01*
X105437142Y-116962380D01*
X105532380Y-116962380D01*
X105675238Y-116914761D01*
X105770476Y-116819523D01*
X105818095Y-116724285D01*
X105865714Y-116533809D01*
X105865714Y-116390952D01*
X105818095Y-116200476D01*
X105770476Y-116105238D01*
X105675238Y-116010000D01*
X105532380Y-115962380D01*
X105437142Y-115962380D01*
X105294285Y-116010000D01*
X105246666Y-116057619D01*
X104341904Y-115962380D02*
X104818095Y-115962380D01*
X104865714Y-116438571D01*
X104818095Y-116390952D01*
X104722857Y-116343333D01*
X104484761Y-116343333D01*
X104389523Y-116390952D01*
X104341904Y-116438571D01*
X104294285Y-116533809D01*
X104294285Y-116771904D01*
X104341904Y-116867142D01*
X104389523Y-116914761D01*
X104484761Y-116962380D01*
X104722857Y-116962380D01*
X104818095Y-116914761D01*
X104865714Y-116867142D01*
X95118333Y-105167380D02*
X95118333Y-105881666D01*
X95165952Y-106024523D01*
X95261190Y-106119761D01*
X95404047Y-106167380D01*
X95499285Y-106167380D01*
X94642142Y-106167380D02*
X94642142Y-105167380D01*
X94261190Y-105167380D01*
X94165952Y-105215000D01*
X94118333Y-105262619D01*
X94070714Y-105357857D01*
X94070714Y-105500714D01*
X94118333Y-105595952D01*
X94165952Y-105643571D01*
X94261190Y-105691190D01*
X94642142Y-105691190D01*
X93118333Y-106167380D02*
X93689761Y-106167380D01*
X93404047Y-106167380D02*
X93404047Y-105167380D01*
X93499285Y-105310238D01*
X93594523Y-105405476D01*
X93689761Y-105453095D01*
X97277380Y-107453333D02*
X97277380Y-106977142D01*
X96277380Y-106977142D01*
X97277380Y-108310476D02*
X97277380Y-107739047D01*
X97277380Y-108024761D02*
X96277380Y-108024761D01*
X96420238Y-107929523D01*
X96515476Y-107834285D01*
X96563095Y-107739047D01*
X97277380Y-99198333D02*
X97277380Y-98722142D01*
X96277380Y-98722142D01*
X96372619Y-99484047D02*
X96325000Y-99531666D01*
X96277380Y-99626904D01*
X96277380Y-99865000D01*
X96325000Y-99960238D01*
X96372619Y-100007857D01*
X96467857Y-100055476D01*
X96563095Y-100055476D01*
X96705952Y-100007857D01*
X97277380Y-99436428D01*
X97277380Y-100055476D01*
X93705476Y-119562380D02*
X94038809Y-119086190D01*
X94276904Y-119562380D02*
X94276904Y-118562380D01*
X93895952Y-118562380D01*
X93800714Y-118610000D01*
X93753095Y-118657619D01*
X93705476Y-118752857D01*
X93705476Y-118895714D01*
X93753095Y-118990952D01*
X93800714Y-119038571D01*
X93895952Y-119086190D01*
X94276904Y-119086190D01*
X93276904Y-119562380D02*
X93276904Y-118562380D01*
X92705476Y-119562380D01*
X92705476Y-118562380D01*
X91705476Y-119562380D02*
X92276904Y-119562380D01*
X91991190Y-119562380D02*
X91991190Y-118562380D01*
X92086428Y-118705238D01*
X92181666Y-118800476D01*
X92276904Y-118848095D01*
X105246666Y-114422380D02*
X105580000Y-113946190D01*
X105818095Y-114422380D02*
X105818095Y-113422380D01*
X105437142Y-113422380D01*
X105341904Y-113470000D01*
X105294285Y-113517619D01*
X105246666Y-113612857D01*
X105246666Y-113755714D01*
X105294285Y-113850952D01*
X105341904Y-113898571D01*
X105437142Y-113946190D01*
X105818095Y-113946190D01*
X104294285Y-114422380D02*
X104865714Y-114422380D01*
X104580000Y-114422380D02*
X104580000Y-113422380D01*
X104675238Y-113565238D01*
X104770476Y-113660476D01*
X104865714Y-113708095D01*
X97626666Y-114422380D02*
X97960000Y-113946190D01*
X98198095Y-114422380D02*
X98198095Y-113422380D01*
X97817142Y-113422380D01*
X97721904Y-113470000D01*
X97674285Y-113517619D01*
X97626666Y-113612857D01*
X97626666Y-113755714D01*
X97674285Y-113850952D01*
X97721904Y-113898571D01*
X97817142Y-113946190D01*
X98198095Y-113946190D01*
X97245714Y-113517619D02*
X97198095Y-113470000D01*
X97102857Y-113422380D01*
X96864761Y-113422380D01*
X96769523Y-113470000D01*
X96721904Y-113517619D01*
X96674285Y-113612857D01*
X96674285Y-113708095D01*
X96721904Y-113850952D01*
X97293333Y-114422380D01*
X96674285Y-114422380D01*
M02*
